<svg id="Capa_1" data-name="Capa 1" xmlns="http://www.w3.org/2000/svg" viewBox="0 0 343 245"><defs><style>.cls-1{fill:#4153a0;}.cls-2{fill:none;stroke:#717070;}.cls-3{fill:#fff;}</style></defs><title>Facebook_icon</title><g id="Grupo_11" data-name="Grupo 11"><g id="Rectángulo_14" data-name="Rectángulo 14"><rect class="cls-1" width="343" height="245"/><rect class="cls-2" x="2.45" y="2.45" width="338.1" height="240.1"/></g><path id="icons8-facebook" class="cls-3" d="M231.28,49h-120A13.17,13.17,0,0,0,98,62.23V182.28A13.93,13.93,0,0,0,111.23,196H171.5V134.75H152.88V116.13H171.5V97.51c0-15.19,6.37-24.5,24.5-24.5h18.62V91.63h-7.84a10.35,10.35,0,0,0-10.29,10.29v14.21H221l-2.94,18.62H196.49V196h35.77a13.17,13.17,0,0,0,13.23-13.23v-120C245,54.88,239.12,49,231.28,49Z"/></g></svg>