<svg id="Capa_1" data-name="Capa 1" xmlns="http://www.w3.org/2000/svg" viewBox="0 0 70 50"><defs><style>.cls-1{fill:#010202;}.cls-2{fill:none;stroke:#717070;}.cls-3{fill:#fff;}</style></defs><title>GitHub_icon</title><g id="Grupo_13" data-name="Grupo 13"><g id="Rectángulo_15" data-name="Rectángulo 15"><rect class="cls-1" width="70" height="50"/><rect class="cls-2" x="0.5" y="0.5" width="69" height="49"/></g><path id="icons8-github" class="cls-3" d="M257.9,421.8a1.3,1.3,0,0,0,.8-1.2v-3.9h-2.3a2.23,2.23,0,0,1-2.2-1.2c-.5-.8-.7-2.3-1.8-3.1-.2-.1-.1-.3.3-.3a3.8,3.8,0,0,1,1.8,1.3,2.61,2.61,0,0,0,2.2,1.3,6.25,6.25,0,0,0,3-.4,3,3,0,0,1,2.3-1.6h0c-3.7-.1-6.1-1.3-7.2-3.2a36.57,36.57,0,0,0-5.7.5c0-.2-.1-.4-.1-.6a49.26,49.26,0,0,1,5.4-.5c-.1-.2-.1-.4-.2-.6a31.08,31.08,0,0,0-5.3.1v-.7a45.13,45.13,0,0,1,5.2-.1,3.4,3.4,0,0,1-.1-1,5.68,5.68,0,0,1,1.1-3.3c-.3-1.1-.8-3.5.1-4.3a5.43,5.43,0,0,1,3.6,1.4,10.13,10.13,0,0,1,7.4,0,5.43,5.43,0,0,1,3.6-1.4c1,.9.5,3.3.1,4.3a4.81,4.81,0,0,1,1,3.3,2.77,2.77,0,0,1-.1.9,31.08,31.08,0,0,1,5.3.1v.7a50,50,0,0,0-5.5-.1c-.1.2-.1.4-.2.6a52.7,52.7,0,0,1,5.6.4c0,.2-.1.4-.1.6a37.7,37.7,0,0,0-5.8-.4c-1.1,1.9-3.4,3.1-7,3.2h0c1.7,0,3.3,2.5,3.3,4.3v3.5a1.3,1.3,0,0,0,.8,1.2,15,15,0,1,0-18.9-9.5,15.43,15.43,0,0,0,9.6,9.7Z" transform="translate(-227.6 -382.5)"/></g></svg>