<svg id="Capa_1" data-name="Capa 1" xmlns="http://www.w3.org/2000/svg" viewBox="0 0 70 50"><defs><style>.cls-1{fill:#787879;}.cls-2{fill:none;stroke:#a8a7a7;stroke-width:2px;}.cls-3{fill:#e0e0e0;}.cls-4{fill:#d9d9d9;}.cls-5{fill:#eee;}.cls-6{fill:#ca3838;}.cls-7{fill:#f5f4f5;}.cls-8{fill:#e94f4b;}</style></defs><title>Gmail_icon</title><g id="Grupo_10" data-name="Grupo 10"><g id="Rectángulo_13" data-name="Rectángulo 13"><rect class="cls-1" width="70" height="50"/><rect class="cls-2" x="1" y="1" width="68" height="48"/></g><g id="icons8-color-500"><path id="Trazado_39" data-name="Trazado 39" class="cls-3" d="M235.23,327.38h25.2a2.43,2.43,0,0,0,2.4-2.4v-17.7a2.43,2.43,0,0,0-2.4-2.4h-25.2a2.43,2.43,0,0,0-2.4,2.4h0V325a2.43,2.43,0,0,0,2.4,2.4Z" transform="translate(-213 -291.5)"/><path id="Trazado_40" data-name="Trazado 40" class="cls-4" d="M249.23,327.38h11.3a2.43,2.43,0,0,0,2.4-2.4v-17.7a2.43,2.43,0,0,0-2.4-2.4h-25.2a2.43,2.43,0,0,0-2.4,2.4h0Z" transform="translate(-213 -291.5)"/><path id="Trazado_41" data-name="Trazado 41" class="cls-5" d="M236,327.38h24.4a2.43,2.43,0,0,0,2.4-2.4v-17.4Z" transform="translate(-213 -291.5)"/><path id="Trazado_42" data-name="Trazado 42" class="cls-3" d="M249,327.38h11.4a2.43,2.43,0,0,0,2.4-2.4h0v-17.4l-18.6,13.7Z" transform="translate(-213 -291.5)"/><path id="Trazado_43" data-name="Trazado 43" class="cls-6" d="M260.43,306.28h-25.2c-1.3,0-2.4-.3-2.4,1V325a2.43,2.43,0,0,0,2.4,2.4h1V308h23.2v19.4h1a2.43,2.43,0,0,0,2.4-2.4v-17.7C262.83,306,261.73,306.28,260.43,306.28Z" transform="translate(-213 -291.5)"/><path id="Trazado_44" data-name="Trazado 44" class="cls-7" d="M260.43,304.88h-25.2a2.37,2.37,0,0,0-2.4,2.4h0c0,.8,1,1.5,1,1.5l14,9.9,14-9.9s1-.7,1-1.5a2.37,2.37,0,0,0-2.4-2.4Z" transform="translate(-213 -291.5)"/><path id="Trazado_45" data-name="Trazado 45" class="cls-8" d="M260.93,305l-13.1,9.1-13.1-9.1a2.35,2.35,0,0,0-1.9,2.3c0,.8,1,1.5,1,1.5l14,9.9,14-9.9s1-.7,1-1.5A2.35,2.35,0,0,0,260.93,305Z" transform="translate(-213 -291.5)"/></g></g></svg>