<svg id="Capa_1" data-name="Capa 1" xmlns="http://www.w3.org/2000/svg" viewBox="0 0 70 50"><defs><style>.cls-1{fill:#0777bd;}.cls-2{fill:none;stroke:#717070;}.cls-3{fill:#fff;}</style></defs><title>Outlook_icon</title><g id="Grupo_12" data-name="Grupo 12"><g id="Rectángulo_16" data-name="Rectángulo 16"><rect class="cls-1" width="70" height="50"/><rect class="cls-2" x="0.5" y="0.5" width="69" height="49"/></g><g id="icons8-ms-outlook"><path id="Trazado_55" data-name="Trazado 55" class="cls-3" d="M136.5,408.74a1.69,1.69,0,0,0,1.7,1.7h14.2a1.69,1.69,0,0,0,1.7-1.7v-12.5a1.69,1.69,0,0,0-1.7-1.7H138.2a1.69,1.69,0,0,0-1.7,1.7Z" transform="translate(-104 -377.5)"/><path id="Trazado_56" data-name="Trazado 56" class="cls-1" d="M154,397.14v-.8a1.93,1.93,0,0,0-.3-1l-9.4,5.8-6.3-3.9-.6,1.6,7,4.2Z" transform="translate(-104 -377.5)"/><path id="Trazado_57" data-name="Trazado 57" class="cls-3" d="M141.5,417.54l-17.5-3.3v-23.3l17.5-3.3Z" transform="translate(-104 -377.5)"/><path id="Trazado_58" data-name="Trazado 58" class="cls-1" d="M136.7,398.24a4.51,4.51,0,0,0-3.6-1.6,4.56,4.56,0,0,0-3.8,1.7,6.3,6.3,0,0,0-1.4,4.4,6,6,0,0,0,1.4,4.2,4.65,4.65,0,0,0,3.6,1.6,5.06,5.06,0,0,0,3.7-1.6,6.2,6.2,0,0,0,1.4-4.3A6.58,6.58,0,0,0,136.7,398.24Zm-1.8,7a2.3,2.3,0,0,1-3.3.5,1.21,1.21,0,0,1-.5-.5,4.23,4.23,0,0,1-.7-2.7,5.19,5.19,0,0,1,.7-2.7,2.46,2.46,0,0,1,2-1,2.06,2.06,0,0,1,1.9,1,5.3,5.3,0,0,1,.7,2.8A6.07,6.07,0,0,1,134.9,405.24Z" transform="translate(-104 -377.5)"/></g></g></svg>