<svg xmlns="http://www.w3.org/2000/svg" height="512pt" version="1.1" viewBox="0 -10 512.00145 512" width="512pt">
<g id="surface1">
<path d="M 387.128906 231.414062 C 385.65625 226.621094 382.441406 222.960938 378.074219 221.105469 C 376.050781 220.242188 373.871094 219.808594 371.601562 219.808594 C 368.742188 219.808594 365.808594 220.523438 363.128906 221.875 C 352.019531 227.488281 342.992188 242.328125 336.398438 253.164062 L 336.34375 253.257812 C 335.757812 254.226562 335.183594 255.167969 334.625 256.078125 C 332.117188 260.167969 329.652344 264.566406 327.300781 269.15625 L 327.089844 269.597656 L 327.019531 269.980469 C 325.765625 272.8125 324.332031 276.070312 323.503906 279.519531 L 323.074219 277.257812 L 319.277344 287.015625 C 316.980469 292.914062 314.984375 298.886719 313.34375 304.769531 C 311.160156 312.597656 309.464844 320.734375 308.300781 328.953125 C 308.300781 328.953125 308.148438 330.027344 308.140625 330.023438 L 308.085938 330.476562 L 307.878906 331.9375 L 307.910156 331.941406 C 307.910156 331.941406 307.78125 333.007812 307.78125 333.007812 C 304.570312 359.851562 307.171875 388.542969 315.324219 414.25 C 316.039062 416.480469 316.890625 418.75 318.753906 419.910156 C 319.347656 420.269531 320.003906 420.484375 320.710938 420.5625 L 319.726562 423.90625 L 323.871094 420.679688 L 326.851562 420.765625 L 325.820312 419.164062 L 327.074219 418.191406 C 328.09375 417.394531 329.09375 416.46875 330.058594 415.425781 C 348.058594 395.683594 362.730469 370.414062 372.484375 342.347656 L 375.023438 335.042969 L 374.863281 335.132812 C 377.914062 325.363281 380.472656 315.144531 382.457031 304.722656 L 383.203125 300.816406 L 383.164062 300.820312 L 383.226562 300.476562 C 384.25 294.679688 385.066406 289.273438 385.71875 283.945312 C 386.777344 275.257812 387.527344 266.253906 387.945312 257.183594 C 388.011719 255.800781 388.105469 254.371094 388.199219 252.925781 L 388.21875 252.648438 C 388.675781 245.425781 389.144531 237.949219 387.128906 231.414062 Z M 387.128906 231.414062 " style=" stroke:none;fill-rule:nonzero;fill:rgb(57.647059%,32.156863%,32.156863%);fill-opacity:1;" />
<path d="M 348.648438 24.675781 C 347.679688 23.25 345.648438 21.554688 341.488281 21.554688 C 340.175781 21.554688 338.738281 21.71875 337.210938 22.039062 C 324.78125 24.671875 312.9375 31.078125 303.859375 40.085938 L 301.15625 42.765625 L 304.394531 44.765625 C 316.644531 52.34375 327.71875 61.78125 337.308594 72.8125 L 339.417969 75.242188 L 341.695312 72.96875 C 344.0625 70.597656 345.515625 67.417969 345.679688 64.242188 C 345.886719 60.191406 344.046875 56.066406 340.96875 53.410156 C 342.347656 52.792969 343.597656 51.78125 344.554688 50.476562 C 345.941406 48.558594 346.539062 46.226562 346.199219 44.089844 C 345.867188 41.933594 344.574219 39.898438 342.644531 38.5 C 342.199219 38.179688 341.730469 37.902344 341.246094 37.667969 C 343.070312 37.085938 344.878906 36.273438 346.398438 35.003906 C 349.246094 32.644531 350.921875 28.023438 348.648438 24.675781 Z M 348.648438 24.675781 " style=" stroke:none;fill-rule:nonzero;fill:rgb(57.647059%,32.156863%,32.156863%);fill-opacity:1;" />
<path d="M 285.152344 192.941406 L 278.933594 195.113281 L 284.65625 198.382812 C 292.214844 202.695312 300.574219 204.980469 308.839844 204.980469 C 309.511719 204.980469 310.1875 204.964844 310.855469 204.933594 C 317.21875 204.648438 323.496094 203.023438 329.511719 200.105469 L 330.234375 199.753906 L 330.6875 199.089844 C 343.589844 180.046875 348.214844 155.296875 343.066406 132.882812 L 342.566406 130.707031 L 340.335938 130.5625 C 334.691406 130.195312 329.199219 129.910156 324.019531 129.707031 L 320.363281 129.5625 L 320.941406 133.175781 C 323.015625 146.207031 320.132812 160.015625 313.03125 171.0625 C 306.527344 181.167969 296.628906 188.9375 285.152344 192.941406 Z M 285.152344 192.941406 " style=" stroke:none;fill-rule:nonzero;fill:rgb(57.647059%,32.156863%,32.156863%);fill-opacity:1;" />
<path d="M 122.117188 114.25 L 119.945312 118.777344 L 124.964844 118.542969 C 128.105469 118.394531 131.257812 118.25 134.375 118.132812 C 145.023438 117.730469 155.925781 117.523438 166.773438 117.523438 C 173.855469 117.523438 181.03125 117.609375 188.101562 117.785156 C 189.050781 117.808594 190.027344 117.816406 191.011719 117.816406 C 191.777344 117.816406 192.546875 117.808594 193.3125 117.804688 C 194.0625 117.800781 194.828125 117.796875 195.597656 117.796875 C 207.816406 117.796875 215.34375 119.757812 217.660156 129.789062 L 218.195312 132.117188 L 241.074219 132.105469 C 241.089844 132.105469 241.117188 132.109375 241.15625 132.121094 L 244.148438 132.890625 L 244.828125 129.878906 C 247.117188 119.773438 254.617188 117.792969 266.800781 117.792969 C 267.609375 117.792969 268.410156 117.800781 269.207031 117.804688 C 269.964844 117.808594 270.730469 117.816406 271.496094 117.816406 C 272.480469 117.816406 273.457031 117.808594 274.40625 117.785156 C 281.402344 117.613281 288.527344 117.527344 295.585938 117.527344 C 306.425781 117.527344 317.375 117.730469 328.132812 118.132812 C 330.1875 118.207031 332.242188 118.300781 334.308594 118.394531 L 339.289062 118.617188 L 337.652344 114.34375 C 330.242188 94.972656 314.101562 79.675781 294.472656 73.429688 C 287.929688 71.339844 281.042969 70.28125 274.007812 70.28125 C 259.132812 70.28125 244.570312 75.027344 232.929688 83.65625 C 220.617188 75.46875 205.597656 70.96875 190.542969 70.96875 C 183.382812 70.96875 176.320312 71.960938 169.554688 73.925781 C 149.101562 79.855469 131.363281 94.929688 122.117188 114.25 Z M 122.117188 114.25 " style=" stroke:none;fill-rule:nonzero;fill:rgb(57.647059%,32.156863%,32.156863%);fill-opacity:1;" />
<path d="M 301.585938 216.21875 C 292.113281 215.058594 282.65625 211.613281 274.242188 206.265625 L 271.617188 204.59375 L 271.609375 204.519531 L 270.523438 203.722656 C 260.691406 196.535156 253.214844 187.148438 248.898438 176.570312 C 247.828125 173.949219 246.894531 171.128906 246.125 168.179688 L 245.484375 165.722656 L 242.960938 165.949219 C 242.859375 165.957031 242.761719 165.96875 242.660156 165.984375 L 219.46875 167.269531 L 216.777344 166.894531 L 216.066406 169.410156 C 215.367188 171.886719 214.542969 174.296875 213.617188 176.570312 C 210.636719 183.847656 206.203125 190.523438 200.4375 196.417969 L 199.476562 197.402344 L 199.554688 198.304688 C 199.304688 198.554688 199.0625 198.8125 198.820312 199.070312 L 190.296875 204.925781 C 179.261719 212.503906 166.234375 216.675781 153.613281 216.675781 C 153.375 216.675781 153.132812 216.667969 152.890625 216.660156 L 142.941406 216.417969 L 150.59375 222.0625 C 172.464844 238.179688 199.417969 247.058594 226.492188 247.058594 L 226.585938 247.058594 C 253.921875 247.035156 281.066406 237.996094 303.019531 221.601562 L 309.007812 217.128906 Z M 232.363281 233.863281 C 232.289062 233.898438 232.207031 233.914062 232.121094 233.914062 C 232.011719 233.914062 231.914062 233.886719 231.808594 233.8125 C 227.605469 230.898438 223.257812 227.886719 219.675781 224.066406 C 217.984375 222.269531 216.527344 220.308594 215.347656 218.238281 L 214.421875 216.617188 L 213.742188 214.796875 C 213.152344 213.214844 212.761719 211.679688 212.578125 210.226562 C 211.855469 204.40625 214.5 196.648438 219.160156 190.914062 C 222.765625 186.472656 227.132812 183.828125 231.449219 183.464844 C 231.75 183.441406 232.050781 183.429688 232.347656 183.429688 C 235.300781 183.429688 238.082031 184.621094 240.621094 186.972656 C 246.105469 192.078125 249.316406 201.726562 249.253906 208.113281 C 249.234375 210.527344 248.867188 212.996094 248.160156 215.441406 L 247.769531 216.800781 L 247.828125 216.890625 L 246.773438 219.25 C 243.863281 225.761719 238.605469 231.089844 232.363281 233.863281 Z M 232.363281 233.863281 " style=" stroke:none;fill-rule:nonzero;fill:rgb(57.647059%,32.156863%,32.156863%);fill-opacity:1;" />
<path d="M 270.476562 447.808594 L 267.84375 448.644531 C 262.195312 450.441406 256.367188 451.90625 250.523438 452.996094 L 247.535156 453.554688 L 248.128906 456.53125 C 249.058594 461.195312 250.019531 466.019531 249.777344 470.957031 C 249.617188 474.109375 248.917969 477.050781 247.691406 479.695312 L 246.878906 481.449219 L 248.140625 482.914062 C 250.453125 485.597656 254.242188 487.203125 258.273438 487.203125 C 260.609375 487.203125 262.890625 486.664062 264.871094 485.640625 C 270.332031 482.8125 274.214844 476.625 275.003906 469.492188 C 275.628906 463.828125 274.492188 457.570312 271.527344 450.363281 Z M 270.476562 447.808594 " style=" stroke:none;fill-rule:nonzero;fill:rgb(57.647059%,32.156863%,32.156863%);fill-opacity:1;" />
<path d="M 247.035156 456.488281 L 246.484375 453.726562 L 243.691406 454.101562 C 238.800781 454.757812 233.859375 455.160156 229.007812 455.292969 L 225.878906 455.382812 L 226.097656 458.503906 C 226.441406 463.386719 226.582031 469.105469 225.023438 474.46875 C 224.457031 476.402344 223.671875 478.214844 222.691406 479.863281 L 221.535156 481.804688 L 223.089844 483.453125 C 225.585938 486.101562 229.0625 487.746094 232.609375 487.957031 C 232.902344 487.976562 233.191406 487.984375 233.484375 487.984375 C 237.222656 487.984375 240.886719 486.496094 243.535156 483.894531 C 246.601562 480.875 248.4375 476.261719 248.707031 470.902344 C 248.945312 466.082031 247.984375 461.253906 247.035156 456.488281 Z M 247.035156 456.488281 " style=" stroke:none;fill-rule:nonzero;fill:rgb(57.647059%,32.156863%,32.156863%);fill-opacity:1;" />
<path d="M 225.003906 458.085938 L 224.804688 455.375 L 222.089844 455.308594 C 217.734375 455.199219 213.425781 454.886719 209.28125 454.378906 C 208.261719 454.25 207.25 454.105469 206.238281 453.949219 L 202.34375 453.347656 L 202.804688 457.265625 C 203.621094 464.203125 202.855469 471.328125 200.582031 477.886719 C 200.335938 478.609375 200.058594 479.316406 199.734375 480.039062 L 199.039062 481.589844 L 200.015625 482.984375 C 201.914062 485.707031 205.46875 487.398438 209.28125 487.398438 C 210.851562 487.398438 212.363281 487.113281 213.777344 486.550781 C 218.457031 484.679688 222.277344 480.050781 223.992188 474.167969 C 225.53125 468.925781 225.386719 463.339844 225.003906 458.085938 Z M 225.003906 458.085938 " style=" stroke:none;fill-rule:nonzero;fill:rgb(57.647059%,32.156863%,32.156863%);fill-opacity:1;" />
<path d="M 201.386719 455.09375 L 201.039062 453.085938 L 199.046875 452.667969 C 195.449219 451.917969 191.8125 450.984375 188.234375 449.894531 L 185.898438 449.183594 L 184.726562 451.328125 C 181.546875 457.167969 179.738281 463.722656 179.503906 470.292969 C 179.332031 475.320312 180.191406 479.179688 182.136719 482.09375 C 183.675781 484.398438 186.773438 486.71875 190.222656 486.71875 C 190.972656 486.71875 191.710938 486.605469 192.414062 486.382812 C 195.480469 485.390625 197.890625 482.410156 199.578125 477.523438 C 202.058594 470.34375 202.683594 462.585938 201.386719 455.09375 Z M 201.386719 455.09375 " style=" stroke:none;fill-rule:nonzero;fill:rgb(57.647059%,32.156863%,32.156863%);fill-opacity:1;" />
<path d="M 153.667969 204.976562 C 158.496094 204.976562 163.375 204.195312 168.164062 202.648438 L 175.839844 200.171875 L 168.410156 197.03125 C 157.1875 192.285156 147.859375 183.304688 142.816406 172.386719 C 137.324219 160.484375 136.941406 146.054688 141.792969 133.785156 L 143.484375 129.511719 L 138.886719 129.6875 C 132.914062 129.914062 126.707031 130.246094 119.910156 130.699219 L 117.863281 130.839844 L 117.25 132.796875 C 110.84375 153.25 114.027344 177.097656 125.554688 195.054688 L 125.859375 195.902344 L 126.671875 196.449219 C 134.3125 201.613281 142.949219 204.546875 151.644531 204.933594 C 152.320312 204.964844 152.992188 204.976562 153.667969 204.976562 Z M 153.667969 204.976562 " style=" stroke:none;fill-rule:nonzero;fill:rgb(57.647059%,32.156863%,32.156863%);fill-opacity:1;" />
<path d="M 111.894531 64.242188 C 112.128906 68.675781 114.8125 72.949219 118.742188 75.136719 L 120.898438 76.335938 L 122.492188 74.453125 C 131.816406 63.417969 142.625 53.898438 154.617188 46.15625 L 157.652344 44.195312 L 155.171875 41.574219 C 145.886719 31.757812 133.519531 24.820312 120.351562 22.039062 C 118.832031 21.71875 117.394531 21.554688 116.078125 21.554688 C 111.910156 21.554688 109.886719 23.253906 108.917969 24.683594 C 106.652344 28.027344 108.328125 32.644531 111.164062 34.996094 C 112.683594 36.269531 114.488281 37.082031 116.324219 37.667969 C 115.839844 37.902344 115.371094 38.179688 114.929688 38.5 C 113.015625 39.875 111.71875 41.90625 111.367188 44.074219 C 111.023438 46.238281 111.628906 48.574219 113.023438 50.476562 C 113.964844 51.777344 115.214844 52.792969 116.59375 53.410156 C 113.515625 56.066406 111.675781 60.195312 111.894531 64.242188 Z M 111.894531 64.242188 " style=" stroke:none;fill-rule:nonzero;fill:rgb(57.647059%,32.156863%,32.156863%);fill-opacity:1;" />
<path d="M 322.328125 129.660156 L 319.894531 129.578125 C 318.71875 129.535156 317.539062 129.496094 316.359375 129.464844 L 312.0625 129.355469 L 313.449219 133.449219 C 316.578125 145.707031 313.046875 159.585938 304.429688 168.851562 C 297.371094 176.429688 286.804688 180.957031 276.164062 180.957031 C 274.996094 180.957031 273.761719 180.890625 272.390625 180.761719 L 265.402344 180.089844 L 269.746094 185.601562 C 272.632812 189.269531 276.070312 192.554688 279.964844 195.367188 L 281.136719 196.21875 L 282.53125 195.824219 C 295.625 192.164062 307.34375 183.527344 314.675781 172.128906 C 322.214844 160.398438 325.15625 145.792969 322.746094 132.058594 Z M 322.328125 129.660156 " style=" stroke:none;fill-rule:nonzero;fill:rgb(39.215686%,29.803922%,29.803922%);fill-opacity:1;" />
<path d="M 186.621094 184.054688 C 174.917969 184.054688 163.269531 178.371094 156.230469 169.226562 C 148.617188 159.339844 146.378906 145.285156 150.523438 133.414062 L 151.949219 129.335938 L 147.632812 129.425781 C 146.640625 129.445312 145.652344 129.476562 144.667969 129.507812 L 141.53125 129.597656 L 140.730469 131.203125 C 140.660156 131.339844 140.605469 131.476562 140.554688 131.621094 C 134.882812 144.710938 135.058594 160.242188 141.039062 173.210938 C 146.945312 186 158.515625 196.179688 171.988281 200.433594 L 173.105469 200.789062 L 174.167969 200.289062 C 179.957031 197.574219 185.335938 193.703125 189.726562 189.09375 L 194.769531 183.796875 L 187.105469 184.039062 C 186.941406 184.046875 186.78125 184.054688 186.621094 184.054688 Z M 186.621094 184.054688 " style=" stroke:none;fill-rule:nonzero;fill:rgb(39.215686%,29.803922%,29.803922%);fill-opacity:1;" />
<path d="M 358.921875 120.914062 C 348.554688 120.152344 338.179688 119.574219 328.085938 119.195312 C 317.449219 118.796875 306.589844 118.59375 295.808594 118.59375 C 288.695312 118.59375 281.5 118.679688 274.433594 118.855469 C 273.480469 118.878906 272.519531 118.886719 271.5625 118.886719 C 270.769531 118.886719 269.980469 118.878906 269.226562 118.875 C 268.582031 118.863281 267.945312 118.863281 267.328125 118.863281 C 257.851562 118.863281 247.105469 118.863281 245.441406 132.621094 C 243.410156 149.316406 244.90625 163.964844 249.882812 176.167969 C 259.363281 199.390625 283.628906 215.609375 308.890625 215.609375 C 309.730469 215.609375 310.570312 215.589844 311.414062 215.550781 C 337.273438 214.398438 361.578125 195.605469 369.207031 170.863281 C 372.617188 159.765625 372.933594 147.96875 373.238281 136.550781 C 373.355469 132.136719 373.25 127.929688 370.738281 125 C 368.015625 121.824219 363.40625 121.238281 358.921875 120.914062 Z M 356.742188 144.191406 C 356.507812 152.710938 356.265625 161.523438 353.726562 169.761719 C 350.082031 181.601562 341.285156 191.839844 329.589844 197.847656 L 328.800781 198.246094 L 328.652344 198.507812 L 328.351562 198.472656 L 327.601562 198.820312 C 322.144531 201.320312 316.480469 202.722656 310.769531 202.980469 C 310.144531 203.007812 309.519531 203.015625 308.890625 203.015625 C 299.734375 203.015625 290.265625 200 282.230469 194.527344 L 281.957031 194.339844 L 281.902344 194.320312 L 281.851562 194.261719 L 281.605469 194.089844 C 274.03125 188.765625 268.304688 181.714844 265.035156 173.699219 C 261.324219 164.621094 260.210938 153.695312 261.726562 141.226562 C 262.738281 132.910156 267.796875 131.386719 277.394531 131.386719 L 280.570312 131.398438 C 281.378906 131.398438 282.1875 131.394531 282.984375 131.375 C 288.222656 131.246094 293.570312 131.179688 298.878906 131.179688 C 307.007812 131.179688 315.230469 131.332031 323.316406 131.632812 C 330.949219 131.917969 338.75 132.355469 346.503906 132.929688 C 349.757812 133.164062 353.089844 133.578125 354.992188 135.800781 C 356.890625 138.007812 356.804688 141.511719 356.742188 144.066406 L 359.742188 144.140625 Z M 356.742188 144.191406 " style=" stroke:none;fill-rule:nonzero;fill:rgb(35.686275%,36.470588%,42.745098%);fill-opacity:1;" />
<path d="M 284.65625 144.441406 C 283.722656 144.105469 282.777344 143.933594 281.851562 143.933594 C 279.175781 143.933594 276.777344 145.34375 275.105469 147.898438 C 272.648438 151.636719 272.148438 157.691406 275.554688 161.355469 C 277.382812 163.324219 280.128906 164.5 282.902344 164.5 C 284.085938 164.5 285.222656 164.292969 286.269531 163.882812 C 290.097656 162.40625 292.261719 159.21875 292.210938 155.125 C 292.144531 151.230469 289.746094 146.222656 284.65625 144.441406 Z M 284.65625 144.441406 " style=" stroke:none;fill-rule:nonzero;fill:rgb(35.686275%,36.470588%,42.745098%);fill-opacity:1;" />
<path d="M 195.160156 118.867188 C 194.558594 118.867188 193.941406 118.871094 193.3125 118.875 C 192.53125 118.878906 191.738281 118.886719 190.945312 118.886719 C 189.984375 118.886719 189.019531 118.878906 188.074219 118.855469 C 181.003906 118.679688 173.808594 118.59375 166.695312 118.59375 C 155.910156 118.59375 145.050781 118.796875 134.417969 119.195312 C 124.324219 119.574219 113.945312 120.152344 103.582031 120.914062 C 99.101562 121.238281 94.496094 121.824219 91.777344 124.996094 C 89.25 127.925781 89.144531 132.136719 89.261719 136.558594 C 89.566406 147.96875 89.882812 159.765625 93.304688 170.867188 C 100.921875 195.605469 125.226562 214.398438 151.097656 215.554688 C 151.945312 215.589844 152.792969 215.609375 153.640625 215.609375 C 178.886719 215.609375 203.136719 199.390625 212.617188 176.167969 C 217.59375 163.972656 219.089844 149.324219 217.066406 132.625 C 215.402344 118.867188 204.648438 118.867188 195.160156 118.867188 Z M 197.476562 173.699219 C 190.421875 190.960938 172.386719 203.015625 153.613281 203.015625 C 152.984375 203.015625 152.359375 203.003906 151.734375 202.976562 C 132.515625 202.121094 114.449219 188.152344 108.777344 169.761719 C 106.226562 161.484375 105.996094 152.652344 105.769531 144.101562 C 105.699219 141.539062 105.601562 138.03125 107.519531 135.796875 C 109.421875 133.578125 112.753906 133.164062 116.003906 132.925781 C 123.742188 132.355469 131.539062 131.917969 139.183594 131.632812 C 147.277344 131.332031 155.503906 131.179688 163.632812 131.179688 C 168.9375 131.179688 174.285156 131.242188 179.53125 131.371094 C 180.363281 131.394531 181.207031 131.398438 182.054688 131.398438 C 182.527344 131.398438 183.007812 131.398438 183.488281 131.394531 C 184.09375 131.390625 184.714844 131.382812 185.339844 131.382812 C 194.578125 131.382812 199.777344 132.949219 200.773438 141.226562 C 202.289062 153.691406 201.179688 164.617188 197.476562 173.699219 Z M 197.476562 173.699219 " style=" stroke:none;fill-rule:nonzero;fill:rgb(35.686275%,36.470588%,42.745098%);fill-opacity:1;" />
<path d="M 181.386719 144.441406 C 180.453125 144.105469 179.507812 143.933594 178.582031 143.933594 C 175.902344 143.933594 173.507812 145.34375 171.835938 147.898438 C 169.378906 151.636719 168.878906 157.691406 172.285156 161.355469 C 174.113281 163.324219 176.859375 164.5 179.632812 164.5 C 180.816406 164.5 181.949219 164.292969 183 163.882812 C 186.824219 162.40625 188.992188 159.21875 188.941406 155.125 C 188.875 151.230469 186.476562 146.222656 181.386719 144.441406 Z M 181.386719 144.441406 " style=" stroke:none;fill-rule:nonzero;fill:rgb(35.686275%,36.470588%,42.745098%);fill-opacity:1;" />
<path d="M 207.273438 360.09375 C 205.144531 361.6875 202.691406 362.742188 200.722656 363.585938 C 183.941406 370.761719 166.523438 377.234375 148.953125 382.824219 L 145.695312 383.863281 L 152.597656 398.605469 L 217.445312 371.945312 L 210.085938 357.984375 Z M 207.273438 360.09375 " style=" stroke:none;fill-rule:nonzero;fill:rgb(35.686275%,81.568627%,98.823529%);fill-opacity:1;" />
<path d="M 157.273438 316.4375 C 169 316.4375 180.71875 319.390625 191.15625 324.96875 L 199.78125 329.582031 L 195.226562 320.925781 C 186.042969 303.484375 177.785156 285.519531 170.683594 267.53125 L 169.609375 264.816406 L 115.671875 284.472656 L 116.96875 287.40625 C 121.585938 297.835938 123.722656 309.207031 123.15625 320.300781 L 122.902344 325.285156 L 127.421875 323.171875 C 135.035156 319.613281 143.011719 317.441406 151.121094 316.714844 C 153.148438 316.53125 155.21875 316.4375 157.273438 316.4375 Z M 157.273438 316.4375 " style=" stroke:none;fill-rule:nonzero;fill:rgb(35.686275%,81.568627%,98.823529%);fill-opacity:1;" />
<path d="M 243.578125 150.480469 L 243.488281 148.101562 L 243.492188 148.101562 L 243.5 146.191406 C 243.511719 144.164062 243.570312 142.214844 243.6875 140.230469 L 243.953125 135.609375 L 240.253906 137.011719 L 239.550781 133.175781 L 218.230469 133.175781 L 218.535156 136.453125 C 218.722656 138.511719 218.859375 140.640625 218.941406 142.964844 L 219.019531 145.078125 L 219.015625 145.082031 L 219.003906 147.132812 C 218.980469 149.71875 218.871094 152.238281 218.671875 154.613281 L 218.429688 157.496094 L 218.40625 157.507812 L 218.179688 159.128906 C 218.015625 160.300781 217.820312 161.453125 217.617188 162.601562 L 216.953125 166.328125 L 245.234375 164.777344 L 244.679688 161.46875 C 244.09375 157.964844 243.722656 154.265625 243.578125 150.480469 Z M 243.578125 150.480469 " style=" stroke:none;fill-rule:nonzero;fill:rgb(100%,100%,100%);fill-opacity:1;" />
<path d="M 372.414062 167.214844 L 367.800781 177.652344 C 357.960938 199.894531 335.320312 215.554688 311.460938 216.617188 C 310.605469 216.65625 309.746094 216.675781 308.894531 216.675781 C 308.171875 216.675781 307.460938 216.65625 306.742188 216.628906 L 304.277344 216.53125 L 303.785156 218.589844 C 281.808594 235.664062 254.40625 245.078125 226.492188 245.097656 C 198.742188 245.097656 171.40625 235.757812 149.441406 218.769531 L 149.441406 216.582031 L 146.796875 216.265625 C 121.972656 213.332031 99.554688 194.792969 92.28125 171.1875 C 91.757812 169.476562 91.273438 167.632812 90.851562 165.710938 L 84.980469 165.765625 C 80.996094 185.644531 80.917969 203.949219 84.75 220.164062 C 84.785156 220.324219 84.757812 220.492188 84.671875 220.613281 C 69.382812 242.019531 59.414062 267.671875 55.839844 294.800781 C 55.769531 295.332031 55.710938 295.867188 55.648438 296.398438 L 55.394531 298.605469 L 55.171875 298.25 L 54.648438 307.78125 C 53.398438 330.519531 56.792969 353.386719 64.464844 373.90625 C 66.964844 380.59375 70.367188 387.980469 76.636719 392.089844 C 80.386719 394.539062 84.933594 395.730469 90.527344 395.730469 C 96.105469 395.730469 102.042969 394.5 106.59375 393.425781 C 138.59375 385.882812 170.121094 375.511719 200.304688 362.605469 C 203.792969 361.117188 206.84375 359.671875 208.886719 357.121094 C 211.863281 353.40625 211.675781 348.285156 210.503906 344.730469 L 209.984375 343.152344 L 210.125 343.074219 L 209.792969 342.566406 L 209.363281 341.257812 L 209.054688 341.433594 L 208.378906 340.398438 C 206.652344 337.753906 204.113281 335.136719 200.625 332.394531 C 200.304688 332.140625 199.972656 331.894531 199.640625 331.652344 L 199.886719 331.542969 L 195.1875 328.550781 C 190.972656 325.859375 186.378906 323.601562 181.535156 321.832031 L 180.703125 321.527344 L 179.839844 321.722656 C 177.765625 322.195312 175.699219 322.699219 173.648438 323.238281 L 173.601562 319.441406 C 168.222656 318.15625 162.738281 317.503906 157.304688 317.503906 C 155.269531 317.503906 153.222656 317.597656 151.214844 317.777344 C 133.679688 319.355469 116.910156 327.804688 105.207031 340.960938 C 105.082031 341.105469 104.925781 341.132812 104.816406 341.132812 C 104.722656 341.132812 104.585938 341.109375 104.46875 341.003906 C 104.242188 340.804688 104.21875 340.460938 104.414062 340.242188 C 109.03125 335.058594 114.46875 330.550781 120.582031 326.84375 L 122.550781 325.648438 L 121.902344 323.433594 C 121.886719 323.367188 121.878906 323.304688 121.882812 323.265625 C 124.042969 300.90625 114.859375 277.867188 97.914062 263.136719 C 97.691406 262.941406 97.667969 262.597656 97.855469 262.378906 C 97.996094 262.21875 98.171875 262.195312 98.265625 262.195312 C 98.394531 262.195312 98.507812 262.238281 98.617188 262.332031 C 101.304688 264.664062 103.875 267.292969 106.261719 270.152344 L 107.71875 271.890625 C 107.71875 271.890625 109.875 270.925781 109.921875 270.902344 L 179.921875 247.769531 C 179.980469 247.75 180.039062 247.742188 180.097656 247.742188 C 180.242188 247.742188 180.4375 247.804688 180.554688 247.992188 C 200.683594 280.058594 218.078125 314.144531 232.253906 349.300781 L 232.558594 350.0625 L 232.800781 350.246094 L 234.367188 354.679688 C 234.890625 356.160156 235.542969 358.394531 235.160156 360.632812 C 234.183594 366.214844 227.839844 368.824219 224.414062 370.234375 L 193.6875 382.871094 L 200.472656 402.570312 L 188.820312 397.378906 L 181.792969 408.34375 L 176.441406 389.964844 L 152.539062 399.792969 C 152.464844 399.820312 152.382812 399.828125 152.324219 399.828125 C 152.167969 399.828125 151.949219 399.746094 151.84375 399.515625 L 145.945312 386.914062 C 145.90625 386.808594 145.871094 386.707031 145.828125 386.613281 L 144.769531 384.148438 L 142.203125 384.925781 C 135.304688 387.019531 128.246094 389.019531 121.230469 390.867188 L 117.429688 391.867188 L 119.398438 395.269531 C 137.445312 426.457031 171.9375 448.699219 209.40625 453.316406 C 214.636719 453.960938 219.996094 454.285156 225.328125 454.285156 C 257.050781 454.285156 288.957031 442.914062 315.167969 422.265625 L 317.230469 420.640625 L 315.894531 418.382812 C 315.175781 417.160156 314.691406 415.773438 314.3125 414.566406 C 303.074219 379.265625 302.367188 340.171875 312.3125 304.484375 C 317.09375 287.332031 324.296875 270.859375 333.722656 255.511719 L 335.464844 252.652344 C 342.128906 241.691406 351.257812 226.679688 362.65625 220.925781 C 365.21875 219.628906 368.035156 218.878906 370.804688 218.753906 L 373.425781 218.640625 L 373.660156 216.027344 C 374.785156 203.578125 374.742188 190.976562 373.527344 178.578125 Z M 56.578125 300.523438 L 55.992188 299.574219 L 56.601562 299.878906 C 56.585938 300.09375 56.578125 300.308594 56.578125 300.523438 Z M 56.578125 300.523438 " style=" stroke:none;fill-rule:nonzero;fill:rgb(68.627451%,47.45098%,47.45098%);fill-opacity:1;" />
<path d="M 363.761719 4.660156 C 363.074219 4.261719 362.269531 4.066406 361.300781 4.066406 C 360.136719 4.066406 358.894531 4.347656 357.84375 4.613281 C 335.367188 10.25 313.679688 20.640625 295.121094 34.660156 L 291.355469 37.507812 L 295.53125 39.710938 C 297.496094 40.746094 299.253906 41.710938 300.898438 42.664062 L 302.917969 43.828125 L 304.546875 42.164062 C 313.46875 33.039062 325.214844 26.574219 337.621094 23.960938 C 339.039062 23.660156 340.351562 23.511719 341.519531 23.511719 C 344.1875 23.511719 345.992188 24.253906 347.027344 25.78125 C 348.621094 28.128906 347.339844 31.667969 345.144531 33.5 C 344.378906 34.132812 343.453125 34.691406 342.386719 35.15625 L 337.773438 37.160156 L 341.726562 40.265625 C 343.09375 41.339844 344.015625 42.839844 344.257812 44.390625 C 344.523438 46.035156 344.050781 47.835938 342.960938 49.324219 C 342.445312 50.027344 341.792969 50.648438 341.078125 51.113281 L 338.066406 53.082031 L 340.546875 55.691406 C 342.722656 57.984375 343.878906 61.058594 343.714844 64.140625 C 343.570312 66.96875 342.265625 69.757812 340.140625 71.785156 L 338.125 73.707031 L 339.894531 75.859375 C 342.367188 78.871094 344.667969 81.898438 346.730469 84.855469 L 349.847656 89.316406 L 351.957031 84.296875 C 361.515625 61.554688 366.503906 36.550781 366.382812 11.980469 C 366.367188 9.304688 366.0625 6.0625 363.761719 4.660156 Z M 363.761719 4.660156 " style=" stroke:none;fill-rule:nonzero;fill:rgb(68.627451%,47.45098%,47.45098%);fill-opacity:1;" />
<path d="M 337.457031 195.3125 C 346.167969 188.925781 352.613281 180.054688 355.597656 170.339844 C 358.222656 161.84375 358.464844 152.894531 358.703125 144.15625 C 358.792969 140.695312 358.699219 137.105469 356.480469 134.519531 C 354.097656 131.746094 350.316406 131.242188 346.640625 130.960938 C 346.28125 130.9375 345.917969 130.914062 345.554688 130.894531 C 345.222656 130.875 344.890625 130.855469 344.558594 130.832031 L 340.574219 130.542969 L 341.410156 134.453125 C 345.480469 153.453125 342.433594 174.234375 333.050781 191.457031 Z M 337.457031 195.3125 " style=" stroke:none;fill-rule:nonzero;fill:rgb(68.627451%,47.45098%,47.45098%);fill-opacity:1;" />
<path d="M 363.65625 120.195312 L 361.988281 115.792969 C 348.808594 81.027344 320.65625 51.445312 286.679688 36.652344 C 269.449219 29.152344 250.0625 25.1875 230.609375 25.1875 C 211.304688 25.1875 192.050781 29.097656 174.933594 36.492188 C 140.730469 51.257812 112.417969 80.941406 99.195312 115.894531 L 97.542969 120.265625 L 102.207031 119.949219 C 102.457031 119.929688 103.507812 119.847656 103.507812 119.847656 C 108.644531 119.464844 114.175781 119.113281 120.40625 118.769531 L 122.242188 118.667969 L 122.988281 116.988281 C 131.75 97.222656 149.367188 81.828125 170.109375 75.804688 C 176.683594 73.898438 183.550781 72.933594 190.523438 72.933594 C 204.933594 72.933594 219.398438 77.183594 231.257812 84.898438 L 232.984375 86.023438 L 234.652344 84.816406 C 245.867188 76.707031 259.851562 72.246094 274.035156 72.246094 C 280.863281 72.246094 287.542969 73.269531 293.882812 75.292969 C 313.308594 81.480469 329.601562 97.316406 336.40625 116.621094 L 337.074219 118.515625 L 339.082031 118.621094 C 346.273438 118.988281 352.777344 119.386719 358.960938 119.847656 Z M 363.65625 120.195312 " style=" stroke:none;fill-rule:nonzero;fill:rgb(68.627451%,47.45098%,47.45098%);fill-opacity:1;" />
<path d="M 116.054688 23.511719 C 117.222656 23.511719 118.535156 23.660156 119.949219 23.960938 C 133.003906 26.722656 145.1875 33.65625 154.265625 43.488281 L 155.925781 45.285156 L 158.019531 44.023438 C 159.800781 42.953125 161.664062 41.882812 163.566406 40.847656 L 167.597656 38.652344 L 163.96875 35.84375 C 145.058594 21.207031 122.84375 10.410156 99.734375 4.617188 C 98.738281 4.363281 97.449219 4.070312 96.261719 4.070312 C 95.300781 4.070312 94.503906 4.261719 93.785156 4.675781 C 91.507812 6.035156 91.195312 9.289062 91.179688 11.980469 C 91.058594 37.808594 96.546875 63.964844 107.050781 87.621094 L 109.269531 92.621094 L 112.292969 88.0625 C 114.679688 84.464844 117.253906 80.933594 119.945312 77.570312 L 122.046875 74.941406 L 119.195312 73.152344 C 116.082031 71.203125 114.035156 67.75 113.847656 64.140625 C 113.691406 61.0625 114.847656 57.980469 117.023438 55.691406 L 119.515625 53.070312 L 116.480469 51.105469 C 115.769531 50.648438 115.136719 50.042969 114.605469 49.332031 C 113.519531 47.839844 113.046875 46.03125 113.300781 44.390625 C 113.550781 42.84375 114.476562 41.335938 115.84375 40.265625 L 119.8125 37.148438 L 115.175781 35.152344 C 114.097656 34.683594 113.195312 34.144531 112.421875 33.5 C 110.226562 31.671875 108.949219 28.132812 110.546875 25.777344 C 111.578125 24.25 113.378906 23.511719 116.054688 23.511719 Z M 116.054688 23.511719 " style=" stroke:none;fill-rule:nonzero;fill:rgb(68.627451%,47.45098%,47.45098%);fill-opacity:1;" />
<path d="M 119.886719 130.65625 L 115.558594 130.992188 C 112.1875 131.257812 108.390625 131.769531 106.023438 134.519531 C 103.8125 137.09375 103.71875 140.691406 103.8125 144.152344 C 104.035156 152.8125 104.269531 161.765625 106.902344 170.339844 C 108.929688 176.910156 112.59375 183.210938 117.503906 188.554688 L 122.4375 185.277344 C 115.160156 169.394531 113.820312 151.476562 118.671875 134.824219 Z M 119.886719 130.65625 " style=" stroke:none;fill-rule:nonzero;fill:rgb(68.627451%,47.45098%,47.45098%);fill-opacity:1;" />
<path d="M 182.445312 253.070312 L 181.140625 250.953125 L 183.28125 247.789062 L 108.335938 272.550781 L 110.558594 275.835938 C 112.320312 278.441406 113.914062 281.148438 115.308594 283.890625 L 116.511719 286.265625 L 168.507812 267.316406 L 168.78125 268.015625 C 176.796875 288.351562 186.195312 308.492188 196.714844 327.875 L 197.0625 328.515625 L 197.667969 328.925781 C 199.039062 329.859375 200.21875 330.714844 201.269531 331.535156 C 204.390625 333.988281 208.796875 337.847656 211.015625 343.035156 C 213.230469 348.207031 212.734375 353.976562 209.753906 357.730469 L 208.539062 359.261719 L 215.625 372.699219 L 224.015625 369.238281 C 228.578125 367.367188 233.34375 364.859375 234.101562 360.445312 C 234.503906 358.121094 233.683594 355.769531 232.652344 353.160156 C 218.914062 318.511719 202.023438 284.835938 182.445312 253.070312 Z M 182.445312 253.070312 " style=" stroke:none;fill-rule:nonzero;fill:rgb(100%,82.352941%,73.333333%);fill-opacity:1;" />
<path d="M 507.980469 469.878906 L 507.886719 468.457031 C 507.710938 465.828125 506.761719 463.183594 505.203125 461.003906 L 503.683594 458.867188 L 501.609375 459.960938 C 499.875 459.707031 498.113281 459.566406 496.347656 459.523438 L 496.875 455.574219 C 493.535156 454.734375 489.828125 454.714844 486.542969 454.695312 C 485.160156 454.695312 483.558594 454.6875 482.027344 454.609375 C 477.199219 454.355469 472.234375 454.335938 467.960938 454.335938 L 466.203125 454.335938 L 466.195312 454.347656 L 463.203125 454.347656 C 460.960938 454.347656 458.71875 454.347656 456.496094 454.324219 L 406.414062 453.746094 C 406.230469 453.746094 406.0625 453.644531 405.96875 453.484375 C 405.871094 453.3125 405.871094 453.109375 405.960938 452.949219 L 417.75 432.449219 L 417.746094 432.449219 L 431.460938 408.597656 L 431.441406 408.609375 L 441.746094 390.6875 L 431.660156 388.285156 L 408.078125 420.515625 L 407.964844 420.667969 L 405.28125 424.335938 L 405.285156 424.335938 L 398.925781 433.03125 C 397.804688 434.558594 396.785156 435.941406 395.683594 437.355469 L 393.03125 440.769531 L 392.824219 440.78125 L 392.007812 441.640625 C 389.683594 444.089844 387.417969 445.929688 385.0625 447.28125 C 384.351562 447.695312 383.558594 448.09375 382.570312 448.53125 L 380.832031 449.300781 L 378.871094 449.859375 C 373.808594 451.308594 368.371094 451.492188 364.199219 451.492188 C 364.199219 451.492188 364.195312 451.492188 364.195312 451.492188 C 362.972656 451.492188 361.777344 451.476562 360.613281 451.457031 L 358.761719 451.425781 L 358.761719 451.429688 L 326.785156 450.847656 L 325.09375 450.816406 L 322.792969 450.777344 L 272.636719 449.871094 L 273.976562 453.894531 C 275.144531 457.402344 275.863281 460.75 276.113281 463.847656 L 276.289062 466.0625 L 276.269531 466.074219 L 276.1875 467.855469 C 276.160156 468.445312 276.121094 469.03125 276.058594 469.617188 C 275.78125 472.210938 275.09375 474.722656 274.015625 477.078125 L 272.140625 481.179688 L 280.285156 481.445312 L 280.273438 481.453125 L 316.117188 482.625 L 316.121094 482.632812 L 364.03125 484.210938 L 364.027344 484.214844 L 385.726562 484.929688 L 418.226562 486.007812 L 418.222656 486.007812 L 454.746094 487.207031 L 454.746094 487.210938 L 471.867188 487.777344 C 472.773438 487.808594 473.652344 487.855469 474.527344 487.902344 L 474.519531 487.917969 L 476.855469 488.042969 L 477.035156 488.054688 L 479.683594 488.195312 C 481.386719 488.285156 482.675781 488.324219 483.863281 488.324219 C 489.132812 488.324219 494.746094 487.605469 500.074219 482.410156 L 500.921875 481.59375 C 503.800781 478.796875 505.929688 476.601562 507.0625 473.792969 L 507.835938 471.882812 L 508.113281 471.902344 L 508.074219 471.296875 L 508.628906 469.921875 Z M 507.980469 469.878906 " style=" stroke:none;fill-rule:nonzero;fill:rgb(96.862745%,70.196078%,43.529412%);fill-opacity:1;" />
<path d="M 232.351562 184.503906 C 232.085938 184.503906 231.820312 184.515625 231.550781 184.535156 C 227.523438 184.863281 223.421875 187.363281 219.992188 191.582031 C 215.507812 197.101562 212.949219 204.535156 213.632812 210.082031 C 214.34375 215.808594 217.734375 220.453125 220.457031 223.339844 C 223.578125 226.660156 227.378906 229.417969 230.699219 231.742188 L 232.234375 232.816406 L 233.875 231.910156 C 242.34375 227.222656 248.09375 217.65625 248.183594 208.109375 C 248.246094 202.089844 245.09375 192.59375 239.882812 187.753906 C 237.558594 185.597656 235.023438 184.503906 232.351562 184.503906 Z M 232.351562 184.503906 " style=" stroke:none;fill-rule:nonzero;fill:rgb(96.862745%,70.196078%,43.529412%);fill-opacity:1;" />
<path d="M 119.0625 451.34375 L 118.738281 451.34375 L 102.230469 451.332031 L 102.230469 451.335938 L 82.714844 451.265625 L 82.71875 451.261719 L 78.644531 451.242188 C 71.203125 451.214844 63.636719 451.167969 55.910156 451.121094 L 52.457031 451.101562 L 52.453125 451.105469 L 32.273438 450.953125 L 32.269531 450.949219 L 28.945312 450.929688 C 25.824219 450.929688 23.488281 451.03125 21.371094 451.261719 L 20.4375 451.363281 L 20.421875 451.167969 L 19.03125 451.515625 L 18.558594 451.566406 L 18.5625 451.628906 L 16.980469 452.023438 C 13.75 452.824219 11.160156 454.097656 9.066406 455.910156 C 3.617188 460.589844 3.601562 465.601562 4.546875 468.984375 C 6.347656 475.414062 12.996094 480.972656 20.347656 482.203125 C 22.238281 482.519531 24.296875 482.675781 26.644531 482.675781 C 29.285156 482.675781 31.925781 482.480469 34.480469 482.292969 L 34.605469 482.285156 C 42.488281 481.699219 50.605469 480.976562 57.847656 480.324219 C 73.308594 478.949219 89.296875 477.527344 104.980469 477.082031 C 108.984375 476.96875 113.277344 476.914062 118.484375 476.914062 L 119.554688 476.914062 L 119.574219 476.894531 L 125.207031 476.964844 C 133.050781 477.054688 140.992188 477.269531 147.820312 477.460938 L 148.082031 477.46875 C 156.671875 477.703125 165.535156 477.949219 174.28125 477.996094 L 174.296875 478.015625 L 178.933594 478.015625 L 178.585938 474.699219 C 178.433594 473.25 178.386719 471.792969 178.441406 470.222656 C 178.460938 469.589844 178.515625 468.957031 178.570312 468.324219 L 178.761719 466.152344 L 179.050781 464.457031 C 179.59375 461.28125 180.488281 458.152344 181.71875 455.164062 L 183.4375 450.976562 L 178.910156 451.023438 C 160.539062 451.230469 140.964844 451.332031 119.0625 451.34375 Z M 119.0625 451.34375 " style=" stroke:none;fill-rule:nonzero;fill:rgb(96.862745%,70.196078%,43.529412%);fill-opacity:1;" />
<path d="M 174.617188 390.707031 L 181.117188 413.03125 L 189.566406 399.851562 L 203.804688 406.199219 L 195.488281 382.121094 Z M 174.617188 390.707031 " style=" stroke:none;fill-rule:nonzero;fill:rgb(92.941176%,42.745098%,40%);fill-opacity:1;" />
<path d="M 312.523438 129.367188 C 307.925781 129.273438 303.285156 129.222656 298.730469 129.222656 C 293.433594 129.222656 288.117188 129.289062 282.941406 129.414062 C 282.167969 129.433594 281.382812 129.4375 280.597656 129.4375 L 279.085938 129.433594 C 278.613281 129.425781 278.152344 129.425781 277.691406 129.425781 C 270.726562 129.425781 261.183594 129.425781 259.785156 140.992188 C 258.230469 153.796875 259.390625 165.050781 263.222656 174.429688 C 264.113281 176.625 265.210938 178.804688 266.492188 180.90625 L 267.546875 182.636719 L 269.421875 182.324219 C 271.625 182.71875 273.902344 182.921875 276.1875 182.921875 C 287.339844 182.921875 298.433594 178.160156 305.859375 170.1875 C 314.882812 160.492188 318.601562 145.984375 315.386719 133.117188 L 316.773438 129.453125 Z M 285.5625 162.058594 C 284.734375 162.375 283.8125 162.542969 282.890625 162.542969 C 280.660156 162.542969 278.457031 161.601562 276.992188 160.023438 C 274.238281 157.058594 274.699219 152.074219 276.742188 148.964844 C 278.03125 146.992188 279.855469 145.90625 281.871094 145.90625 C 282.5625 145.90625 283.273438 146.03125 283.988281 146.285156 C 287.613281 147.558594 290.191406 151.207031 290.253906 155.152344 C 290.296875 158.378906 288.585938 160.890625 285.5625 162.058594 Z M 285.5625 162.058594 " style=" stroke:none;fill-rule:nonzero;fill:rgb(97.647059%,84.705882%,53.72549%);fill-opacity:1;" />
<path d="M 184.925781 129.429688 C 184.449219 129.429688 181.910156 129.4375 181.910156 129.4375 C 181.125 129.4375 180.34375 129.433594 179.578125 129.414062 C 174.597656 129.289062 169.40625 129.226562 164.15625 129.226562 C 160.179688 129.226562 156.0625 129.265625 151.921875 129.335938 L 149.523438 129.429688 L 149.050781 131.660156 C 144.148438 144.398438 146.351562 159.601562 154.675781 170.425781 C 162.074219 180.039062 174.308594 186.011719 186.601562 186.011719 C 187.953125 186.011719 189.3125 185.941406 190.644531 185.796875 L 192.347656 186.15625 L 193.496094 184.621094 C 195.886719 181.425781 197.835938 177.996094 199.289062 174.441406 C 203.125 165.050781 204.28125 153.796875 202.730469 140.992188 C 201.316406 129.429688 191.84375 129.429688 184.925781 129.429688 Z M 182.289062 162.058594 C 181.464844 162.375 180.542969 162.542969 179.621094 162.542969 C 177.394531 162.542969 175.1875 161.601562 173.722656 160.023438 C 170.976562 157.0625 171.4375 152.078125 173.472656 148.964844 C 174.765625 146.992188 176.585938 145.90625 178.601562 145.90625 C 179.292969 145.90625 180.003906 146.03125 180.71875 146.285156 C 184.347656 147.558594 186.921875 151.207031 186.984375 155.152344 C 187.023438 158.378906 185.316406 160.890625 182.289062 162.058594 Z M 182.289062 162.058594 " style=" stroke:none;fill-rule:nonzero;fill:rgb(97.647059%,84.705882%,53.72549%);fill-opacity:1;" />
<path d="M 105.914062 170.644531 C 111.9375 190.207031 131.15625 205.066406 151.605469 205.976562 C 152.273438 206.003906 152.941406 206.019531 153.613281 206.019531 C 173.378906 206.019531 192.765625 193.164062 200.246094 174.835938 C 204.148438 165.277344 205.328125 153.847656 203.753906 140.867188 C 202.226562 128.265625 191.8125 128.320312 183.457031 128.390625 C 182.160156 128.398438 180.867188 128.410156 179.597656 128.375 C 166.152344 128.042969 152.519531 128.132812 139.070312 128.636719 C 131.335938 128.925781 123.5 129.363281 115.785156 129.929688 C 112.070312 130.203125 107.886719 130.753906 105.238281 133.84375 C 102.574219 136.941406 102.691406 141.300781 102.769531 144.183594 C 103.003906 152.933594 103.246094 161.980469 105.914062 170.644531 Z M 151.785156 201.9375 C 143.425781 201.566406 135.296875 198.65625 128.351562 193.964844 C 128.300781 193.820312 128.238281 193.683594 128.152344 193.550781 C 116.96875 176.207031 113.941406 153.398438 120.117188 133.699219 C 126.402344 133.273438 132.730469 132.921875 139.003906 132.683594 C 133.847656 145.730469 134.214844 160.902344 140.097656 173.644531 C 145.480469 185.3125 155.414062 194.796875 167.242188 199.800781 C 162.253906 201.40625 157.019531 202.171875 151.785156 201.9375 Z M 172.890625 197.570312 C 160.203125 193.566406 149.339844 184.035156 143.765625 171.953125 C 138.109375 159.699219 137.964844 145.003906 143.378906 132.644531 C 143.390625 132.613281 143.398438 132.578125 143.410156 132.550781 C 144.835938 132.503906 146.261719 132.457031 147.6875 132.421875 C 143.207031 145.253906 145.554688 160.269531 153.855469 171.054688 C 161.542969 181.046875 174.050781 187.050781 186.625 187.050781 C 186.933594 187.050781 187.242188 187.03125 187.550781 187.023438 C 183.386719 191.40625 178.371094 195.003906 172.890625 197.570312 Z M 179.496094 132.414062 C 180.808594 132.449219 182.144531 132.4375 183.484375 132.429688 C 192.882812 132.367188 198.703125 132.765625 199.746094 141.355469 C 201.238281 153.644531 200.148438 164.394531 196.507812 173.308594 C 195.121094 176.707031 193.285156 179.894531 191.097656 182.824219 C 190.90625 182.789062 190.707031 182.773438 190.503906 182.792969 C 177.90625 184.207031 164.78125 178.632812 157.054688 168.59375 C 149.328125 158.550781 147.304688 144.433594 151.894531 132.621094 C 151.933594 132.527344 151.953125 132.429688 151.976562 132.335938 C 161.15625 132.171875 170.371094 132.1875 179.496094 132.414062 Z M 108.304688 136.476562 C 109.894531 134.621094 112.847656 134.210938 115.789062 133.984375 C 110.746094 151.324219 112.21875 170.179688 119.710938 186.523438 C 115.210938 181.621094 111.730469 175.8125 109.773438 169.453125 C 107.269531 161.320312 107.035156 152.554688 106.808594 144.078125 C 106.726562 141.082031 106.78125 138.246094 108.304688 136.476562 Z M 108.304688 136.476562 " style=" stroke:none;fill-rule:nonzero;fill:rgb(0%,0%,0%);fill-opacity:1;" />
<path d="M 346.722656 129.933594 C 339.003906 129.363281 331.171875 128.929688 323.433594 128.636719 C 309.988281 128.132812 296.355469 128.042969 282.910156 128.378906 C 281.636719 128.40625 280.34375 128.398438 279.046875 128.390625 C 270.691406 128.34375 260.28125 128.269531 258.75 140.871094 C 257.175781 153.847656 258.355469 165.277344 262.257812 174.835938 C 265.832031 183.59375 272.128906 191.097656 279.878906 196.550781 C 280.070312 196.742188 280.289062 196.902344 280.539062 197.007812 C 288.882812 202.6875 298.835938 206.019531 308.894531 206.019531 C 309.5625 206.019531 310.230469 206.003906 310.902344 205.976562 C 317.109375 205.699219 323.199219 204.132812 328.847656 201.542969 C 328.953125 201.558594 329.058594 201.589844 329.164062 201.589844 C 329.804688 201.589844 330.429688 201.289062 330.820312 200.730469 C 330.871094 200.660156 330.914062 200.589844 330.964844 200.519531 C 342.949219 194.355469 352.628906 183.519531 356.59375 170.644531 C 359.261719 161.984375 359.503906 152.933594 359.738281 144.1875 C 359.8125 141.304688 359.929688 136.945312 357.269531 133.84375 C 354.617188 130.753906 350.433594 130.203125 346.722656 129.933594 Z M 262.761719 141.355469 C 263.753906 133.179688 269.070312 132.425781 277.691406 132.425781 C 278.128906 132.425781 278.570312 132.429688 279.023438 132.429688 C 280.359375 132.441406 281.699219 132.449219 283.007812 132.414062 C 292.773438 132.171875 302.640625 132.160156 312.460938 132.363281 C 312.324219 132.734375 312.296875 133.148438 312.402344 133.558594 C 315.515625 145.519531 312.085938 159.09375 303.664062 168.140625 C 295.246094 177.1875 281.953125 181.589844 269.800781 179.339844 C 269.546875 179.292969 269.296875 179.304688 269.058594 179.347656 C 267.882812 177.421875 266.855469 175.40625 266 173.308594 C 262.359375 164.394531 261.269531 153.640625 262.761719 141.355469 Z M 272.105469 183.738281 C 273.453125 183.878906 274.804688 183.953125 276.160156 183.953125 C 287.496094 183.953125 298.90625 179.1875 306.621094 170.894531 C 315.960938 160.859375 319.761719 145.804688 316.3125 132.539062 C 316.304688 132.515625 316.289062 132.492188 316.28125 132.464844 C 317.453125 132.496094 318.625 132.53125 319.792969 132.570312 C 322.074219 145.574219 319.289062 159.398438 312.148438 170.5 C 305.179688 181.339844 294.128906 189.464844 281.722656 192.9375 C 278.109375 190.324219 274.847656 187.230469 272.105469 183.738281 Z M 310.722656 201.9375 C 302.160156 202.328125 293.601562 200.035156 286.140625 195.78125 C 298.125 191.601562 308.679688 183.367188 315.546875 172.6875 C 323.078125 160.972656 326.09375 146.449219 323.898438 132.703125 C 329.296875 132.910156 334.726562 133.207031 340.140625 133.554688 C 345.128906 155.273438 340.699219 178.949219 328.203125 197.402344 C 322.738281 200.058594 316.792969 201.667969 310.722656 201.9375 Z M 355.699219 144.078125 C 355.472656 152.554688 355.238281 161.320312 352.734375 169.453125 C 349.839844 178.851562 343.628906 187.066406 335.679688 192.890625 C 345.402344 175.050781 348.601562 153.707031 344.34375 133.824219 C 345.035156 133.871094 345.734375 133.90625 346.425781 133.957031 C 349.460938 134.183594 352.5625 134.5625 354.203125 136.476562 C 355.726562 138.246094 355.777344 141.082031 355.699219 144.078125 Z M 355.699219 144.078125 " style=" stroke:none;fill-rule:nonzero;fill:rgb(0%,0%,0%);fill-opacity:1;" />
<path d="M 179.625 165.539062 C 180.902344 165.539062 182.179688 165.316406 183.375 164.855469 C 187.578125 163.230469 190.046875 159.589844 189.976562 155.117188 C 189.898438 149.933594 186.5 145.136719 181.714844 143.453125 C 177.59375 142.003906 173.476562 143.488281 170.960938 147.328125 C 168.324219 151.34375 167.625 157.875 171.515625 162.066406 C 173.601562 164.308594 176.621094 165.539062 179.625 165.539062 Z M 174.339844 149.539062 C 175.039062 148.476562 176.421875 146.9375 178.585938 146.9375 C 179.132812 146.9375 179.726562 147.039062 180.375 147.265625 C 183.96875 148.527344 185.894531 152.203125 185.9375 155.179688 C 185.964844 156.792969 185.476562 159.714844 181.921875 161.085938 C 179.445312 162.042969 176.316406 161.296875 174.480469 159.316406 C 172.109375 156.761719 172.558594 152.253906 174.339844 149.539062 Z M 174.339844 149.539062 " style=" stroke:none;fill-rule:nonzero;fill:rgb(0%,0%,0%);fill-opacity:1;" />
<path d="M 282.894531 165.539062 C 284.175781 165.539062 285.449219 165.316406 286.644531 164.855469 C 290.847656 163.230469 293.316406 159.589844 293.246094 155.117188 C 293.167969 149.933594 289.769531 145.136719 284.984375 143.453125 C 280.863281 142.003906 276.746094 143.488281 274.230469 147.328125 C 271.597656 151.34375 270.898438 157.875 274.789062 162.066406 C 276.867188 164.308594 279.890625 165.539062 282.894531 165.539062 Z M 277.609375 149.539062 C 278.308594 148.476562 279.691406 146.9375 281.855469 146.9375 C 282.402344 146.9375 282.996094 147.039062 283.644531 147.265625 C 287.238281 148.527344 289.164062 152.203125 289.210938 155.179688 C 289.234375 156.792969 288.746094 159.714844 285.191406 161.085938 C 282.71875 162.042969 279.589844 161.296875 277.75 159.316406 C 275.378906 156.761719 275.828125 152.253906 277.609375 149.539062 Z M 277.609375 149.539062 " style=" stroke:none;fill-rule:nonzero;fill:rgb(0%,0%,0%);fill-opacity:1;" />
<path d="M 503.730469 454.070312 C 498.382812 450.691406 492.109375 450.660156 486.578125 450.628906 C 485.058594 450.621094 483.621094 450.613281 482.242188 450.542969 C 476.511719 450.242188 470.691406 450.257812 465.0625 450.273438 C 462.21875 450.277344 459.375 450.289062 456.539062 450.253906 L 412.496094 449.75 L 445.632812 392.082031 C 446.191406 391.113281 446.257812 389.941406 445.8125 388.914062 C 445.371094 387.894531 444.46875 387.136719 443.382812 386.882812 L 432.246094 384.246094 C 430.863281 383.921875 429.417969 384.453125 428.578125 385.601562 L 395.632812 430.628906 C 392.152344 435.382812 388.210938 440.773438 383.039062 443.753906 C 376.253906 447.664062 367.527344 447.507812 359.820312 447.371094 L 283.410156 445.996094 C 295.988281 440.515625 308 433.277344 319.019531 424.40625 C 319.769531 424.609375 320.539062 424.71875 321.328125 424.71875 C 325.042969 424.71875 329.121094 422.480469 333.058594 418.164062 C 352.8125 396.5 368.484375 368.621094 378.382812 337.535156 C 383.628906 321.070312 387.453125 303.203125 389.753906 284.441406 C 390.816406 275.734375 391.578125 266.628906 392.015625 257.378906 C 392.082031 255.9375 392.175781 254.460938 392.269531 252.957031 C 392.730469 245.703125 393.253906 237.480469 391.015625 230.210938 C 389.179688 224.25 385.148438 219.6875 379.671875 217.355469 C 379.019531 217.078125 378.359375 216.84375 377.6875 216.640625 C 379.234375 199.707031 378.679688 182.625 375.996094 165.832031 C 375.882812 165.105469 375.550781 164.464844 375.078125 163.964844 C 376.8125 154.890625 377.066406 145.660156 377.304688 136.667969 C 377.410156 132.707031 377.570312 126.71875 373.820312 122.347656 C 371.933594 120.148438 369.527344 118.867188 366.953125 118.085938 C 366.945312 117.71875 366.898438 117.34375 366.765625 116.976562 C 363.441406 107.632812 359.078125 98.644531 353.839844 90.171875 C 364.832031 65.761719 370.578125 38.734375 370.449219 11.964844 C 370.4375 9.742188 370.410156 3.839844 365.808594 1.152344 C 362.539062 -0.753906 358.839844 0.167969 356.851562 0.667969 C 332.609375 6.746094 309.449219 18.136719 289.824219 33.613281 C 289.316406 33.382812 288.8125 33.148438 288.300781 32.925781 C 252.324219 17.261719 209.339844 17.195312 173.316406 32.753906 C 171.828125 33.398438 170.359375 34.074219 168.894531 34.769531 C 168.691406 34.460938 168.449219 34.167969 168.140625 33.921875 C 148.433594 18.285156 125.117188 6.789062 100.710938 0.667969 C 98.722656 0.167969 95.023438 -0.757812 91.753906 1.15625 C 87.15625 3.839844 87.125 9.742188 87.113281 11.964844 C 86.984375 38.914062 92.800781 66.132812 103.945312 90.671875 C 104.351562 91.574219 105.097656 92.214844 105.960938 92.527344 C 101.425781 100.179688 97.597656 108.230469 94.601562 116.570312 C 94.375 117.195312 94.351562 117.839844 94.472656 118.449219 C 92.308594 119.25 90.304688 120.460938 88.683594 122.351562 C 84.929688 126.722656 85.089844 132.707031 85.195312 136.671875 C 85.285156 140.023438 85.378906 143.410156 85.546875 146.808594 C 77.445312 173.710938 75.726562 198.171875 80.433594 219.550781 C 65.277344 241.25 55.386719 267.042969 51.800781 294.257812 C 48.144531 322.019531 51.203125 350.054688 60.652344 375.332031 C 63.382812 382.640625 67.148438 390.746094 74.402344 395.488281 C 79.257812 398.664062 84.738281 399.808594 90.460938 399.808594 C 96.03125 399.808594 101.832031 398.726562 107.523438 397.386719 C 109.988281 396.804688 112.453125 396.199219 114.914062 395.585938 C 127.402344 418.09375 147.824219 436.167969 172.03125 447.027344 C 127.484375 447.460938 82.859375 447.277344 30.425781 446.871094 C 23.667969 446.824219 13.464844 446.742188 6.40625 452.828125 C 0.894531 457.574219 -1.15625 463.699219 0.625 470.074219 C 2.824219 477.949219 10.835938 484.738281 19.671875 486.21875 C 22.011719 486.613281 24.332031 486.75 26.632812 486.75 C 29.429688 486.75 32.191406 486.542969 34.902344 486.34375 C 42.636719 485.769531 50.507812 485.066406 58.121094 484.386719 C 73.550781 483.015625 89.503906 481.59375 105.097656 481.148438 C 119.257812 480.742188 133.71875 481.140625 147.703125 481.527344 C 156.828125 481.78125 166.261719 482.042969 175.554688 482.078125 L 175.566406 482.078125 C 176.1875 482.078125 176.765625 481.90625 177.273438 481.621094 C 177.695312 482.585938 178.183594 483.5 178.753906 484.351562 C 181.449219 488.382812 185.925781 490.777344 190.261719 490.777344 C 191.410156 490.777344 192.554688 490.609375 193.648438 490.257812 C 195.421875 489.6875 197.007812 488.691406 198.417969 487.320312 C 201.226562 489.96875 205.199219 491.46875 209.277344 491.46875 C 211.296875 491.46875 213.34375 491.101562 215.285156 490.328125 C 217.265625 489.539062 219.109375 488.363281 220.773438 486.886719 C 223.886719 489.863281 228.054688 491.753906 232.355469 492.023438 C 232.722656 492.046875 233.089844 492.058594 233.457031 492.058594 C 238.191406 492.058594 242.921875 490.15625 246.3125 486.855469 C 249.457031 489.730469 253.792969 491.296875 258.242188 491.296875 C 261.125 491.296875 264.058594 490.640625 266.730469 489.257812 C 268.722656 488.230469 270.535156 486.839844 272.132812 485.179688 C 272.339844 485.226562 272.554688 485.257812 272.773438 485.265625 L 471.738281 491.839844 C 473.460938 491.894531 475.167969 492 476.820312 492.101562 C 479.191406 492.246094 481.53125 492.390625 483.835938 492.390625 C 490.523438 492.390625 496.910156 491.179688 502.933594 485.300781 L 503.742188 484.515625 C 507.589844 480.789062 511.949219 476.566406 512 469.453125 C 512.046875 463.3125 508.800781 457.273438 503.730469 454.070312 Z M 376.90625 223.863281 C 380.4375 225.363281 383.050781 228.359375 384.261719 232.292969 C 386.117188 238.328125 385.660156 245.535156 385.21875 252.511719 C 385.121094 254.054688 385.023438 255.570312 384.953125 257.050781 C 384.527344 266.125 383.78125 275.050781 382.738281 283.582031 C 380.089844 305.214844 375.257812 327.984375 366.914062 348.238281 C 361.066406 362.433594 354.566406 376.722656 346.273438 389.460938 C 344.21875 392.613281 321.714844 424.425781 318.1875 413.332031 C 312.535156 395.5625 309.851562 378.917969 309.453125 360.1875 C 309.328125 354.269531 309.578125 348.714844 310.222656 342.832031 C 311.589844 330.328125 312.84375 317.730469 316.234375 305.574219 C 317.78125 300.015625 320.699219 295.40625 322.574219 289.953125 C 324.769531 283.566406 327.09375 277.21875 329.828125 271.042969 C 329.90625 270.871094 329.945312 270.699219 329.972656 270.523438 C 332.210938 266.15625 334.601562 261.855469 337.183594 257.644531 C 337.742188 256.734375 338.320312 255.785156 338.914062 254.808594 C 345.332031 244.253906 354.117188 229.796875 364.488281 224.558594 C 368.566406 222.492188 373.09375 222.238281 376.90625 223.863281 Z M 368.457031 126.949219 C 370.285156 129.078125 370.34375 132.671875 370.242188 136.480469 C 369.941406 147.6875 369.632812 159.277344 366.335938 169.980469 C 359.074219 193.554688 335.921875 211.457031 311.28125 212.554688 C 286.640625 213.636719 261.984375 197.867188 252.664062 175.027344 C 247.882812 163.316406 246.453125 149.171875 248.417969 132.988281 C 249.652344 122.8125 256.085938 121.867188 267.328125 121.867188 C 267.929688 121.867188 268.550781 121.867188 269.179688 121.871094 C 270.929688 121.886719 272.734375 121.898438 274.507812 121.851562 C 292.257812 121.414062 310.246094 121.527344 327.976562 122.195312 C 338.167969 122.578125 348.503906 123.152344 358.703125 123.902344 C 362.558594 124.1875 366.488281 124.65625 368.457031 126.949219 Z M 192.117188 217.34375 C 194.40625 219.746094 198.15625 219.390625 200.523438 217.84375 C 200.605469 217.789062 200.683594 217.734375 200.765625 217.679688 C 201.253906 218.847656 202.023438 219.859375 203.007812 220.597656 C 204.210938 221.5 205.722656 221.976562 207.292969 221.976562 C 207.746094 221.976562 208.203125 221.9375 208.660156 221.859375 C 210.261719 221.574219 211.6875 220.8125 212.746094 219.722656 C 213.996094 221.933594 215.570312 224.089844 217.492188 226.128906 C 221.296875 230.179688 225.777344 233.285156 230.113281 236.289062 C 230.714844 236.703125 231.417969 236.917969 232.125 236.917969 C 232.613281 236.917969 233.101562 236.816406 233.5625 236.613281 C 240.714844 233.433594 246.367188 227.523438 249.511719 220.476562 C 249.9375 220.804688 250.394531 221.105469 250.890625 221.359375 C 252.167969 222.019531 253.535156 222.351562 254.875 222.351562 C 255.882812 222.351562 256.875 222.164062 257.800781 221.78125 C 259.949219 220.894531 261.628906 219.007812 262.398438 216.609375 C 262.511719 216.261719 262.601562 215.910156 262.671875 215.558594 C 263.59375 215.828125 264.578125 215.914062 265.554688 215.792969 C 268.355469 215.433594 270.917969 213.410156 272.078125 210.640625 C 272.328125 210.054688 272.511719 209.433594 272.636719 208.796875 C 281.285156 214.292969 291.105469 217.953125 301.222656 219.199219 C 279.769531 235.214844 253.382812 244.039062 226.582031 244.058594 L 226.496094 244.058594 C 199.921875 244.058594 173.738281 235.398438 152.371094 219.648438 C 152.785156 219.65625 153.199219 219.675781 153.617188 219.675781 C 167.238281 219.675781 180.71875 215.128906 191.992188 207.394531 C 191.820312 207.769531 191.652344 208.140625 191.496094 208.519531 C 189.996094 212.21875 190.214844 215.351562 192.117188 217.34375 Z M 221.9375 142.855469 C 221.867188 140.667969 221.730469 138.441406 221.527344 136.179688 L 239.550781 136.171875 Z M 240.695312 140.058594 C 240.574219 142.132812 240.511719 144.167969 240.507812 146.175781 L 221.660156 154.863281 C 221.871094 152.351562 221.988281 149.78125 222.003906 147.152344 Z M 240.578125 150.59375 C 240.734375 154.523438 241.117188 158.316406 241.726562 161.964844 L 220.574219 163.125 C 220.789062 161.945312 220.984375 160.757812 221.152344 159.546875 Z M 241.074219 129.105469 L 220.582031 129.109375 C 217.242188 114.648438 204.035156 114.734375 193.28125 114.804688 C 191.585938 114.816406 189.835938 114.828125 188.175781 114.789062 C 170.28125 114.34375 152.140625 114.460938 134.265625 115.132812 C 131.128906 115.25 127.976562 115.394531 124.820312 115.546875 C 133.71875 96.953125 150.566406 82.558594 170.394531 76.804688 C 191.058594 70.8125 214.023438 74.441406 231.824219 86.527344 C 232.539062 87.011719 233.488281 86.988281 234.179688 86.464844 C 250.867188 73.828125 273.621094 69.929688 293.5625 76.28125 C 312.3125 82.261719 327.835938 97.070312 334.855469 115.410156 C 332.648438 115.3125 330.441406 115.214844 328.242188 115.132812 C 310.367188 114.460938 292.230469 114.34375 274.332031 114.789062 C 272.671875 114.828125 270.921875 114.816406 269.226562 114.804688 C 258.449219 114.726562 245.207031 114.648438 241.90625 129.214844 C 241.636719 129.148438 241.359375 129.105469 241.074219 129.105469 Z M 216.386719 177.703125 C 217.371094 175.296875 218.226562 172.800781 218.949219 170.222656 C 219.097656 170.242188 219.242188 170.265625 219.394531 170.265625 C 219.457031 170.265625 219.523438 170.265625 219.589844 170.261719 L 242.90625 168.980469 C 243.015625 168.972656 243.113281 168.945312 243.21875 168.929688 C 244.015625 171.96875 244.976562 174.898438 246.121094 177.703125 C 250.765625 189.078125 258.816406 198.878906 268.753906 206.148438 C 268.855469 207.1875 268.726562 208.199219 268.355469 209.074219 C 267.75 210.519531 266.417969 211.609375 265.042969 211.785156 C 263.933594 211.921875 262.75 211.40625 262.136719 210.578125 C 262.003906 210.285156 261.851562 209.996094 261.679688 209.722656 C 261.128906 208.835938 259.992188 208.515625 259.0625 208.984375 C 258.128906 209.449219 257.703125 210.550781 258.082031 211.519531 C 258.210938 211.847656 258.367188 212.164062 258.546875 212.460938 C 258.867188 213.324219 258.878906 214.367188 258.554688 215.371094 C 258.152344 216.617188 257.296875 217.617188 256.261719 218.046875 C 255.222656 218.476562 253.910156 218.371094 252.742188 217.769531 C 252.03125 217.402344 251.460938 216.867188 251.046875 216.269531 C 251.800781 213.640625 252.230469 210.910156 252.257812 208.136719 C 252.324219 201.199219 248.984375 190.652344 242.660156 184.777344 C 239.269531 181.625 235.3125 180.136719 231.210938 180.476562 C 226.070312 180.898438 220.96875 183.933594 216.839844 189.019531 C 211.613281 195.449219 208.773438 203.917969 209.605469 210.589844 C 209.605469 210.589844 209.605469 210.589844 209.605469 210.59375 C 209.824219 212.351562 210.28125 214.109375 210.933594 215.84375 C 210.632812 216 210.363281 216.226562 210.164062 216.527344 C 209.714844 217.21875 208.910156 217.714844 207.964844 217.882812 C 207.015625 218.042969 206.09375 217.859375 205.433594 217.363281 C 204.773438 216.871094 204.335938 216.039062 204.230469 215.082031 C 204.171875 214.535156 204.222656 214.007812 204.382812 213.539062 C 204.644531 213.109375 204.890625 212.691406 205.121094 212.289062 C 205.648438 211.390625 205.398438 210.234375 204.546875 209.628906 C 203.695312 209.023438 202.523438 209.167969 201.84375 209.957031 C 201.398438 210.480469 201.03125 211.070312 200.761719 211.707031 C 200.070312 212.792969 199.285156 213.824219 198.3125 214.460938 C 197.3125 215.117188 195.761719 215.308594 195.042969 214.554688 C 193.976562 213.441406 194.925781 210.816406 195.242188 210.039062 C 196.75 206.328125 199.078125 202.902344 201.976562 200.132812 C 202.4375 199.695312 202.632812 199.09375 202.585938 198.507812 C 208.449219 192.511719 213.214844 185.472656 216.386719 177.703125 Z M 245.1875 208.074219 C 245.105469 216.671875 239.945312 225.125 232.425781 229.289062 C 228.945312 226.855469 225.472656 224.300781 222.640625 221.285156 C 220.230469 218.722656 217.226562 214.632812 216.613281 209.71875 L 216.613281 209.722656 C 216.027344 205.011719 218.375 198.332031 222.320312 193.476562 C 225.222656 189.902344 228.585938 187.785156 231.785156 187.523438 C 233.910156 187.355469 235.894531 188.144531 237.84375 189.957031 C 242.300781 194.097656 245.238281 202.667969 245.1875 208.074219 Z M 358.570312 7.523438 C 359.4375 7.304688 361.464844 6.800781 362.246094 7.257812 C 362.664062 7.5 363.363281 8.441406 363.382812 12 C 363.5 36.261719 358.605469 60.746094 349.195312 83.140625 C 346.988281 79.988281 344.65625 76.925781 342.210938 73.953125 C 344.84375 71.449219 346.519531 67.972656 346.714844 64.292969 C 346.921875 60.34375 345.410156 56.453125 342.71875 53.625 C 343.730469 52.964844 344.640625 52.109375 345.382812 51.09375 C 346.9375 48.960938 347.609375 46.34375 347.226562 43.914062 C 346.859375 41.613281 345.539062 39.445312 343.578125 37.90625 C 344.804688 37.371094 345.992188 36.691406 347.0625 35.804688 C 350.253906 33.144531 352.097656 27.914062 349.507812 24.097656 C 347.289062 20.828125 342.964844 19.769531 336.996094 21.023438 C 323.910156 23.785156 311.746094 30.507812 302.402344 40.066406 C 300.597656 39.023438 298.773438 38.019531 296.925781 37.058594 C 315.179688 23.265625 336.40625 13.082031 358.570312 7.523438 Z M 334.40625 38.214844 C 334.605469 39.296875 335.636719 40.015625 336.71875 39.839844 C 338.09375 39.613281 339.613281 40.015625 340.886719 40.9375 C 342.164062 41.855469 343.019531 43.175781 343.238281 44.550781 C 343.453125 45.921875 343.046875 47.441406 342.121094 48.710938 C 341.191406 49.980469 339.871094 50.832031 338.496094 51.042969 C 337.65625 51.171875 336.988281 51.8125 336.820312 52.644531 C 336.65625 53.476562 337.027344 54.324219 337.753906 54.765625 C 340.890625 56.671875 342.871094 60.414062 342.679688 64.082031 C 342.550781 66.609375 341.371094 69.046875 339.578125 70.84375 C 329.867188 59.6875 318.503906 49.96875 305.976562 42.210938 C 314.667969 33.582031 325.835938 27.511719 337.835938 24.980469 C 340.246094 24.472656 344.542969 23.972656 346.167969 26.367188 C 347.425781 28.222656 346.289062 31.195312 344.480469 32.699219 C 342.203125 34.589844 338.898438 35.269531 335.984375 35.867188 C 334.910156 36.089844 334.207031 37.132812 334.40625 38.214844 Z M 94.1875 12 C 94.203125 8.441406 94.902344 7.5 95.320312 7.257812 C 96.105469 6.800781 98.132812 7.308594 98.996094 7.523438 C 121.773438 13.234375 143.550781 23.839844 162.132812 38.214844 C 160.226562 39.25 158.335938 40.332031 156.476562 41.457031 C 146.976562 31.160156 134.28125 23.921875 120.570312 21.027344 C 114.601562 19.769531 110.277344 20.828125 108.058594 24.097656 C 105.46875 27.914062 107.3125 33.148438 110.507812 35.804688 C 111.578125 36.695312 112.761719 37.371094 113.988281 37.910156 C 112.027344 39.445312 110.710938 41.613281 110.34375 43.917969 C 109.960938 46.34375 110.628906 48.960938 112.1875 51.09375 C 112.929688 52.109375 113.839844 52.96875 114.847656 53.628906 C 112.160156 56.453125 110.648438 60.34375 110.855469 64.292969 C 111.097656 68.933594 113.695312 73.246094 117.601562 75.695312 C 114.839844 79.148438 112.234375 82.722656 109.796875 86.40625 C 99.464844 63.136719 94.0625 37.449219 94.1875 12 Z M 120.746094 52.644531 C 120.582031 51.808594 119.914062 51.167969 119.074219 51.042969 C 117.699219 50.828125 116.378906 49.980469 115.449219 48.710938 C 114.519531 47.441406 114.113281 45.921875 114.332031 44.546875 C 114.550781 43.171875 115.40625 41.855469 116.679688 40.933594 C 117.957031 40.015625 119.472656 39.613281 120.847656 39.839844 C 121.933594 40.015625 122.960938 39.292969 123.160156 38.214844 C 123.359375 37.132812 122.65625 36.089844 121.582031 35.867188 C 118.664062 35.269531 115.363281 34.589844 113.089844 32.699219 C 111.277344 31.191406 110.140625 28.222656 111.398438 26.367188 C 113.023438 23.972656 117.316406 24.46875 119.734375 24.980469 C 132.382812 27.648438 144.113281 34.25 152.992188 43.636719 C 140.738281 51.546875 129.644531 61.34375 120.199219 72.519531 C 117.183594 70.835938 115.066406 67.535156 114.886719 64.082031 C 114.695312 60.414062 116.675781 56.671875 119.816406 54.765625 C 120.539062 54.324219 120.914062 53.476562 120.746094 52.644531 Z M 176.121094 39.242188 C 210.378906 24.449219 251.261719 24.507812 285.480469 39.40625 C 318.882812 53.949219 346.257812 82.777344 359.183594 116.851562 C 352.566406 116.363281 345.890625 115.957031 339.238281 115.625 C 332.101562 95.394531 315.253906 78.957031 294.789062 72.433594 C 274.070312 65.828125 250.496094 69.652344 232.898438 82.386719 C 214.289062 70.273438 190.613281 66.730469 169.269531 72.925781 C 147.644531 79.199219 129.363281 95.199219 120.242188 115.777344 C 114.582031 116.082031 108.914062 116.4375 103.285156 116.851562 C 102.863281 116.882812 102.4375 116.917969 102.007812 116.957031 C 114.953125 82.710938 142.515625 53.757812 176.121094 39.242188 Z M 94.050781 126.953125 C 96.019531 124.65625 99.949219 124.1875 103.804688 123.902344 C 114.003906 123.152344 124.34375 122.578125 134.53125 122.195312 C 152.261719 121.527344 170.25 121.414062 188.003906 121.855469 C 189.773438 121.898438 191.578125 121.886719 193.328125 121.875 C 205.714844 121.800781 212.789062 122.269531 214.089844 132.988281 C 216.054688 149.171875 214.625 163.316406 209.84375 175.03125 C 200.519531 197.867188 175.871094 213.640625 151.226562 212.554688 C 126.585938 211.457031 103.429688 193.554688 96.171875 169.980469 C 92.875 159.277344 92.5625 147.6875 92.265625 136.480469 C 92.164062 132.671875 92.222656 129.078125 94.050781 126.953125 Z M 175.554688 463.789062 C 175.261719 464.730469 175.0625 465.421875 175.019531 465.644531 C 174.417969 468.859375 175.738281 471.707031 175.453125 474.90625 C 166.519531 475.835938 156.902344 474.710938 147.902344 474.460938 C 117.601562 473.621094 87.703125 474.65625 57.496094 477.347656 C 49.910156 478.023438 42.0625 478.722656 34.382812 479.292969 C 29.863281 479.628906 25.191406 479.976562 20.84375 479.246094 C 14.675781 478.210938 8.910156 473.453125 7.4375 468.171875 C 6.40625 464.480469 7.609375 461.117188 11.019531 458.179688 C 16.527344 453.433594 29.484375 454.9375 36.433594 454.726562 C 44.351562 454.484375 52.222656 454.753906 60.132812 455 C 79.691406 455.605469 99.203125 453.917969 118.734375 454.25 C 128.636719 454.417969 138.535156 454.417969 148.4375 454.351562 C 158.386719 454.28125 168.914062 453.160156 178.78125 454.125 C 178.667969 454.117188 176.566406 460.488281 175.554688 463.789062 Z M 196.742188 476.546875 C 195.800781 479.261719 194.128906 482.679688 191.488281 483.523438 C 189.023438 484.316406 186.066406 482.566406 184.632812 480.421875 C 183.042969 478.046875 182.347656 474.765625 182.503906 470.390625 C 182.726562 464.234375 184.410156 458.171875 187.363281 452.769531 C 191 453.871094 194.695312 454.820312 198.4375 455.605469 C 199.636719 462.605469 199.066406 469.828125 196.742188 476.546875 Z M 221.113281 473.328125 C 219.65625 478.332031 216.496094 482.234375 212.664062 483.761719 C 208.996094 485.226562 204.417969 484.050781 202.46875 481.261719 C 202.808594 480.5 203.128906 479.707031 203.421875 478.859375 C 205.855469 471.816406 206.65625 464.296875 205.78125 456.917969 C 206.820312 457.074219 207.863281 457.222656 208.910156 457.351562 C 213.257812 457.886719 217.628906 458.195312 222.007812 458.304688 C 222.429688 464.058594 222.417969 468.859375 221.113281 473.328125 Z M 245.710938 470.75 C 245.480469 475.355469 243.960938 479.265625 241.429688 481.75 C 239.179688 483.964844 235.953125 485.160156 232.804688 484.96875 C 229.964844 484.789062 227.21875 483.46875 225.269531 481.398438 C 226.371094 479.542969 227.261719 477.496094 227.902344 475.308594 C 229.535156 469.707031 229.484375 463.855469 229.09375 458.292969 C 234.097656 458.15625 239.101562 457.75 244.089844 457.070312 C 244.996094 461.597656 245.933594 466.273438 245.710938 470.75 Z M 272.019531 469.160156 C 271.339844 475.316406 268.074219 480.609375 263.488281 482.976562 C 259.109375 485.238281 253.261719 484.261719 250.414062 480.953125 C 251.765625 478.046875 252.589844 474.714844 252.769531 471.101562 C 253.03125 465.839844 252.046875 460.808594 251.070312 455.941406 C 257.019531 454.835938 262.929688 453.355469 268.753906 451.503906 C 271.511719 458.214844 272.589844 463.996094 272.019531 469.160156 Z M 209.773438 450.335938 C 172.914062 445.796875 139.632812 424.25 121.996094 393.765625 C 129.054688 391.910156 136.085938 389.917969 143.074219 387.792969 C 143.105469 387.867188 143.121094 387.945312 143.15625 388.019531 L 149.121094 400.789062 C 149.71875 402.070312 150.988281 402.828125 152.324219 402.828125 C 152.773438 402.828125 153.226562 402.742188 153.667969 402.5625 L 174.492188 394 L 179.511719 411.242188 C 179.734375 412.003906 180.378906 412.5625 181.164062 412.679688 C 181.261719 412.691406 181.355469 412.699219 181.453125 412.699219 C 182.132812 412.699219 182.777344 412.355469 183.152344 411.769531 L 189.953125 401.164062 L 201.3125 406.226562 C 202.050781 406.554688 202.90625 406.414062 203.5 405.871094 C 204.09375 405.328125 204.308594 404.484375 204.046875 403.722656 L 197.4375 384.566406 L 225.554688 373.007812 C 232.425781 370.183594 238.675781 365.90625 238.375 357.730469 C 238.070312 349.578125 232.894531 342.820312 229.796875 335.578125 C 225.421875 325.359375 220.785156 315.253906 215.890625 305.277344 C 205.992188 285.097656 195.046875 265.429688 183.09375 246.394531 C 182.230469 245.015625 180.535156 244.410156 178.992188 244.917969 L 108.820312 268.105469 C 108.730469 268.136719 108.652344 268.183594 108.566406 268.21875 C 106.128906 265.300781 103.460938 262.566406 100.582031 260.0625 C 99.109375 258.777344 96.878906 258.933594 95.597656 260.410156 C 94.316406 261.882812 94.46875 264.113281 95.941406 265.394531 C 112.167969 279.507812 120.960938 301.570312 118.894531 322.972656 C 118.847656 323.425781 118.902344 323.867188 119.019531 324.277344 C 112.761719 328.074219 107.046875 332.765625 102.175781 338.246094 C 100.878906 339.703125 101.007812 341.9375 102.464844 343.234375 C 103.925781 344.53125 106.160156 344.402344 107.457031 342.945312 C 118.652344 330.355469 134.699219 322.269531 151.484375 320.761719 C 168.09375 319.265625 183.804688 323.527344 197.132812 333.78125 C 202.246094 337.714844 205.996094 342.851562 207.667969 349.164062 C 209.242188 355.117188 203.9375 357.785156 199.117188 359.847656 C 169.074219 372.695312 137.714844 383.007812 105.902344 390.503906 C 95.894531 392.863281 85.625 394.378906 78.273438 389.570312 C 72.730469 385.945312 69.605469 379.085938 67.273438 372.855469 C 63.949219 363.960938 61.476562 354.753906 59.835938 345.402344 C 58.304688 336.683594 56.359375 326.394531 57.410156 317.527344 C 59.488281 299.996094 60.015625 282.394531 65.554688 265.355469 C 70.53125 250.042969 77.765625 235.46875 87.109375 222.351562 C 87.703125 221.519531 87.90625 220.476562 87.671875 219.484375 C 83.921875 203.617188 84.023438 185.800781 87.921875 166.359375 C 88.347656 168.269531 88.835938 170.171875 89.417969 172.0625 C 97.085938 196.964844 120.636719 216.191406 146.449219 219.242188 C 146.445312 219.84375 146.707031 220.441406 147.21875 220.839844 C 169.761719 238.421875 197.910156 248.097656 226.5 248.097656 L 226.589844 248.097656 C 255.203125 248.078125 283.378906 238.359375 305.921875 220.730469 C 306.285156 220.441406 306.519531 220.050781 306.625 219.632812 C 307.382812 219.660156 308.136719 219.675781 308.894531 219.675781 C 309.792969 219.675781 310.695312 219.65625 311.597656 219.617188 C 336.695312 218.5 360.410156 201.769531 370.542969 178.863281 C 371.742188 191.125 371.78125 203.484375 370.671875 215.761719 C 367.503906 215.898438 364.304688 216.730469 361.300781 218.246094 C 349.128906 224.398438 339.734375 239.851562 332.875 251.136719 C 332.289062 252.105469 331.714844 253.042969 331.160156 253.949219 C 321.585938 269.550781 314.273438 286.28125 309.425781 303.679688 C 299.324219 339.921875 300.046875 379.625 311.453125 415.476562 C 311.917969 416.9375 312.472656 418.488281 313.3125 419.90625 C 283.164062 443.652344 245.527344 454.742188 209.773438 450.335938 Z M 119.714844 286.199219 L 167.890625 268.640625 C 175.109375 286.910156 183.398438 304.910156 192.566406 322.328125 C 179.871094 315.535156 165.21875 312.433594 150.847656 313.722656 C 142.292969 314.492188 133.921875 316.824219 126.15625 320.457031 C 126.757812 308.726562 124.457031 296.921875 119.714844 286.199219 Z M 117.980469 282.53125 C 116.515625 279.636719 114.859375 276.839844 113.039062 274.15625 L 175.855469 253.398438 L 168.59375 264.109375 C 168.515625 264.128906 168.4375 264.140625 168.359375 264.167969 Z M 171.566406 266.917969 L 179.890625 254.644531 C 199.378906 286.265625 216.183594 319.75 229.863281 354.265625 C 230.722656 356.441406 231.414062 358.371094 231.144531 359.9375 C 230.628906 362.90625 226.671875 364.90625 222.867188 366.46875 L 217.003906 368.882812 L 212.105469 359.601562 C 215.757812 354.980469 216.414062 348.03125 213.773438 341.859375 C 211.269531 336.011719 206.492188 331.820312 203.117188 329.175781 C 201.894531 328.21875 200.632812 327.316406 199.351562 326.441406 C 188.921875 307.226562 179.585938 287.238281 171.566406 266.917969 Z M 213.25 370.425781 L 154.097656 394.742188 L 149.863281 385.679688 C 167.523438 380.070312 184.921875 373.609375 201.898438 366.347656 C 204.023438 365.4375 206.683594 364.285156 209.070312 362.5 Z M 193.695312 386.105469 L 198.710938 400.644531 L 190.011719 396.769531 C 189.101562 396.363281 188.027344 396.683594 187.488281 397.523438 L 182.148438 405.851562 L 178.25 392.457031 Z M 503.980469 475.808594 C 502.285156 477.765625 500.007812 479.136719 497.648438 480.199219 C 496.027344 480.925781 494.386719 481.515625 492.71875 481.984375 C 484.375 484.347656 475.511719 483.777344 466.875 483.230469 C 455.75 482.523438 444.546875 482.457031 433.398438 482.160156 C 381.210938 480.761719 328.835938 480.214844 276.738281 478.324219 C 278.699219 474.023438 278.4375 470.558594 278.484375 466.015625 C 278.496094 464.578125 278.335938 452.976562 276.824219 452.949219 C 296.351562 453.300781 315.886719 453.222656 335.414062 453.441406 C 352.773438 453.632812 370.574219 455.773438 386.589844 447.386719 C 405.742188 437.363281 416.070312 415.964844 427.53125 398.722656 C 428.707031 396.953125 430.605469 392.398438 432.683594 391.734375 C 433.882812 391.351562 437.640625 392.207031 436.535156 394.035156 C 429.746094 407.609375 420.53125 420.445312 412.660156 433.433594 C 410.742188 436.597656 396.082031 455.566406 407.324219 455.441406 C 415.617188 455.347656 423.875 455.648438 432.191406 456.023438 C 442.699219 456.496094 453.207031 456.96875 463.710938 457.441406 C 475.285156 457.960938 491.160156 455.433594 501.511719 461.792969 C 503.992188 463.316406 506.050781 465.785156 506.410156 468.675781 C 506.734375 471.242188 505.675781 473.855469 503.980469 475.808594 Z M 503.980469 475.808594 " style=" stroke:none;fill-rule:nonzero;fill:rgb(0%,0%,0%);fill-opacity:1;" />
</g>
</svg>